<svg xmlns="http://www.w3.org/2000/svg" viewBox="0 0 1200 1200">
  <path fill="#fff" d="M957 767c-5-50-16-99-36-145-7-14-8-12 5-20a175 175 0 0 0 57-77c17-36 28-75 37-114 11-47 27-116 4-161-41-80-170-105-250-99-43 4-101 17-125 57-20 33-20 82-19 120-39-33-77-69-125-89-53-21-110-19-165-9-40 8-85 19-115 48-19 17-27 39-32 64-3 15-3 32-1 47 1 7 3 14 6 19 5 9 13 11 7 20-32 42-53 111-33 162 14 37 51 58 87 70a463 463 0 0 0 179 22c12-1 9 21 9 30l-2 34-1 17-16 6c-39 15-86 47-83 95 1 46-3 96 41 123 39 24 87 35 130 44a830 830 0 0 0 349 2c47-10 103-21 142-51 34-26 30-77 24-114-4-23-6-42-21-61-14-18-33-31-53-40-5-59 36 16 0 0z"/>
  <path fill="#68182b" d="M1007 860c0-38-38-66-71-78-4-58-17-117-44-168 1-7 0-16 2-22 49-15 70-76 86-119 19-64 36-132 30-199-11-38-50-60-83-75-74-29-172-41-242 3-28 17-28 55-31 84-3 31-2 62 2 93-109-88-151-155-304-128-45 8-116 23-131 73-7 20-10 42-7 63 1 15 17 24 26 35-37 35-54 87-52 137 2 60 72 80 121 91a465 465 0 0 0 146 8c18 20 14 48 13 72-4 77 3 35-59 73-21 13-44 33-41 60 0 27-3 54 7 80 9 21 30 29 49 38 153 59 348 60 504 13 23-8 47-15 66-30 27-26 19-71 13-104z"/>
  <path fill="#8edbff" d="M519 542c-30-26-74-35-112-43-57-8-148-15-193 25-28 25-16 66 12 84 32 21 70 30 107 37 36 6 74 8 111 4 35-1 95-17 101-55 3-19-9-37-26-52zm-40 71c-42 23-241 13-241-51 5-39 61-39 92-40 46 0 95 5 138 25 31 14 51 47 11 66z"/>
  <path fill="#67d5e8" d="M397 537c23 4 48 9 69 20 6 3 6 5-1 6-23 6-49 6-73 4-38-3-78-7-113-24-7-4-5-5 1-6 38-9 78-6 117 0z"/>
  <path fill="#ceffff" d="M479 601c-37 25-217 14-231-34-1-7 1-13 6-17 9-10 9-5 16 0l23 10c45 14 93 19 140 17 15 0 30-2 44-7 3-1 7 0 9 3l3 3c6 11 0 20-10 25z"/>
  <path fill="#67d5e8" d="M921 742a529 529 0 0 1 4 114c-6 9-18 13-28 18l-18 8c-7 2-8 0-8-6l-1-60c-1-147-24-158-110-266-18-25-33-54-35-85-1-12 4-9 10-4a2563 2563 0 0 1 126 122c34 45 52 103 60 159z"/>
  <path fill="#00ebed" d="m700 417-1-2c-4-38-8-75-6-113 0-18 0-36 6-52 6-20 30-41 50-25l2 1c4 4 3 5-2 6-51 12-40 101-39 141l4 48c1 6-1 7-6 3l-8-7z"/>
  <path fill="#8edbff" d="M760 260c-7 64-6 129-3 194 0 13-5 9-8 6a3770 3770 0 0 0-28-25 870 870 0 0 1-7-96c2-29-2-61 15-86 6-9 15-15 26-16 2 0 3 1 3 2 2 7 3 14 2 21z"/>
  <path fill="#ceffff" d="M878 589c-13-18-29-34-44-50-10-9-5-9 3-6 27 10 49 27 47 55 0 7-2 7-6 1z"/>
  <path fill="#8edbff" d="M901 579c-3 2-7 0-8-4-1-9-5-18-12-25-17-20-46-29-71-34l-2-2-25-23c-3-2-13-12 4-9 45 7 95 22 121 59 5 9 8 18 7 27l-2 3c-3 4-7 6-12 8z"/>
  <path fill="#00ebed" d="M796 335c1-22 2-44 5-66 1-26 16-60 47-50 7 2 13 6 17 12 5 6 3 5-2 3-7-4-15-5-23-1-16 6-24 25-26 41-9 65-9 132-9 198 0 2-1 2-3 2l-8-1-1-2c0-45 0-91 3-136z"/>
  <path fill="#8edbff" d="m841 484-26-7c-3-1-4-3-4-6a2242 2242 0 0 1 6-177c2-17 3-37 16-50 10-10 23-9 32-2 9 6 11 11 11 26 1 29-4 58-6 86-5 42-10 85-21 126-1 4-5 6-8 4z"/>
  <path fill="#00ebed" d="M907 518a491 491 0 0 0 44-227c-3-10-9-21-17-29-5-5-4-8-2-10 9-4 18 2 21 5 28 27 19 70 14 104a644 644 0 0 1-45 156c-8 14-4 20-14 8-2-2-2-5-1-7z"/>
  <path fill="#8edbff" d="M917 263c1-3 4-3 7-2 47 30 12 143 1 187-6 22-14 43-22 63-1 3-5 4-7 2l-17-11c-2-1-3-3-2-5 20-67 27-136 35-205 1-9 1-20 5-29z"/>
  <path fill="#ceffff" d="m668 389-1-2c-6-43-7-88 0-131 3-31 15-46 45-57 73-32 214-14 272 51 12 13 17 26 18 43 1 22-3 45-6 68a542 542 0 0 1-66 193c-2 2-6 1-7-2l-4-11v-4c25-47 96-251 34-288-11-6-31-4-38 6-10 15-9 38-11 55a1168 1168 0 0 1-32 183c-1 2-3 3-5 2l-11-5-3-4a1235 1235 0 0 0 29-211c2-23-4-47-25-59-43-20-62 24-63 60a1758 1758 0 0 0-7 191c0 2-2 4-4 4l-16-2c-2 0-4-2-4-4-3-67-5-134 3-202 5-76-80-62-78 20a694 694 0 0 0 4 118c0 7 2 11-7 3l-17-15z"/>
  <path fill="#8edbff" d="M244 303c54-48 196-63 261-30 38 22 71 54 106 81l99 85c10 9 9 7 9 20 0 63 51 112 88 158 49 56 56 119 57 191l1 75c0 2-1 4-3 5a532 532 0 0 1-85 21c-3 0-5-2-5-5 4-52 5-105 0-157-3-33-7-70-25-99h-1c-34-47-74-88-113-131-53-56-105-115-166-163-56-36-174-23-231 7l-6 3c-5 4-7 4-6-4a96 96 0 0 1 20-57z"/>
  <path fill="#67d5e8" d="M302 399c73-18 162-5 216 51 23 27 30 60 30 94 1 12 3 18-9 4-9-10-19-19-30-25-69-41-223-59-293-13l-5 3c-9 8-12 7-9-5 12-51 49-96 100-109z"/>
  <path fill="#ceffff" d="M469 662c-1-3 0-6 3-6 36-7 81-26 84-66 5-46 5-95-21-134-49-65-142-83-219-70-24 4-47 12-66 27-2 2-4 2-5 0l-20-21c-4-7-4-9 9-18 10-7 21-12 32-16 48-14 100-20 149-13 23 4 45 13 62 29a3680 3680 0 0 1 207 213c39 46 69 71 75 133a781 781 0 0 1 3 186c0 2-2 3-4 3h-18l-14-1c-2 0-4-2-4-4 1-50 4-101-2-151-2-34-15-58-47-72-29-13-63-17-94-12-24 3-54 14-58 41-2 11-2 22-2 33l-5 111c-1 18-6 20-19 14l-14-6c-3-1-3-1-5-5-15-49 20-152-7-195z"/>
  <path fill="#8edbff" d="M704 907c-59-3-119-9-176-27-3-1-5-4-5-8l6-142c1-13 0-24 10-34l1-1c33-26 82-21 119-9 28 9 48 28 50 58 7 51 4 104 3 155 0 5-3 8-8 8z"/>
  <path fill="#67d5e8" d="M378 854c9-38 53-52 86-64 0 25-7 53 5 75 4 5 9 7 14 9l33 12c64 22 131 28 198 32 34 1 69 3 103-7 31-7 62-17 90-31 9-4 19-9 25-17 4-5 4-9 4-15v-55c53 19 88 71 30 111-103 67-348 63-467 36-39-8-126-36-121-86z"/>
  <path fill="#8edbff" d="M994 949c-13 18-38 23-58 32a798 798 0 0 1-520-15c-31-11-38-35-38-63-1-12 4-9 9-4 23 23 54 35 84 44 124 32 256 32 381 11 48-10 107-22 140-61 8-10 9-14 10 3a92 92 0 0 1-8 53z"/>
  <path fill="#65b0b9" d="M509 523a122 122 0 0 1 35 30c-9-20-23-38-43-50-29-19-66-25-100-29-18-2-36-3-55-3-23-1-47 2-70 3-11 0-23-1-32-9-7-7-5-18-2-26l4-9c-21 21-37 48-44 78-3 12 0 13 9 5l5-3c70-46 224-28 293 13zm251 27c86 108 109 119 110 266l1 60c0 6 1 8 8 6l13-6c-9-7-10-26-10-36v-41c0-47-7-95-27-138-28-59-93-99-121-158 6 17 16 32 26 47z"/>
  <path fill="#65b0b9" d="M807 927c34-9 68-23 100-38 10-6 19-14 24-24-7 6-16 11-24 15-28 14-59 24-90 31-34 10-69 8-103 7a732 732 0 0 1-231-44c-5-2-10-4-14-9l-4-11v8c4 19 24 25 40 31a893 893 0 0 0 242 40c21 1 40 0 60-6zM448 549c-16-6-34-9-51-12-31-5-64-8-95-4 44 22 97 25 146 16z"/>
  <path fill="#a6f4ff" d="M360 409c-14-1-29 0-43 2-13 2-43 11-39 29 5 22 37 17 52 16 24-2 47-4 70-2 31 2 67 8 96 22 13 7 45 28 11-13-33-40-99-52-147-54zm610 490c-25 15-53 25-81 31-40 9-81 12-122 15-58 3-116 4-174-1-33-3-66-8-98-17-30-8-60-19-84-38-9-7-17-17-17-30 0-11 9-20 17-27a151 151 0 0 1 52-29l1-13c-33 12-77 26-86 64-5 50 82 78 121 86 119 27 364 31 467-36l15-13-11 8zM810 544c22 22 42 45 59 72 32 52 48 111 57 171-1-15-2-30-5-45-8-56-26-114-60-159a2563 2563 0 0 0-126-123c-6-4-11-7-10 5 13 10 24 22 36 32l49 47z"/>
  <g fill="#73b9d5">
    <path d="M994 949v-1c4-6 6-12 7-19-17 17-38 29-62 38-37 13-78 21-118 28a761 761 0 0 1-355-21c-21-7-43-15-62-27-10-7-19-16-25-26 3 20 13 36 37 45a798 798 0 0 0 520 15c20-9 45-14 58-32zM226 608c32 21 70 30 107 37 36 6 74 8 111 4 35-1 95-17 101-55 1-7 0-15-3-22 0 10-2 20-8 29-8 15-24 24-40 30-34 14-74 14-110 12-46-1-92-11-133-30-17-8-33-19-43-36-6-10-8-23-7-35-9 24 3 52 25 66zm505-358-2 3c-17 25-13 57-15 86a870 870 0 0 0 9 98l17 15-7-20a397 397 0 0 1-8-141c1-14 2-27 6-41zM548 689a78 78 0 0 0-9 7c-10 10-9 21-10 34l-6 142c0 4 2 7 5 8 57 18 117 24 176 27 5 0 8-3 8-8l1-47c-10 20-26 36-52 37-20 1-43-3-62-8s-42-14-52-32c-7-12-7-28-9-41a365 365 0 0 1 10-119z"/>
    <path d="m230 364 6-3c57-30 175-43 231-7 61 48 113 107 166 163 39 43 79 84 113 131h1c18 29 22 66 25 99 5 52 4 105 0 157 0 3 2 5 5 5a239 239 0 0 0 48-10h-2c-13 2-28 3-32-14-3-14-2-31-2-45v-46c-2-49-3-100-25-146-12-24-31-45-48-65l-62-67c-38-38-75-78-115-115-23-20-46-41-72-58s-61-20-92-19c-32 1-64 6-94 14-18 4-40 10-51 26zm603-120c-13 13-14 33-16 50l-4 62c-2 39-3 77-2 115 0 3 1 5 4 6l13 3c-4-7-5-18-6-25-2-14-1-29-1-44l4-55c2-27 5-54 10-81 2-9 6-28 15-38-6 0-12 2-17 7z"/>
    <path d="M501 569c-5-19-29-29-46-36a290 290 0 0 0-158-15c-21 3-47 9-58 30-2 4-2 9-1 14 5-39 62-39 92-40 46 0 95 5 138 25 18 8 32 22 33 37v-15zm380-33c-14-13-32-19-49-24l-31-7-6-2 13 11 2 2c25 5 54 14 71 34a46 46 0 0 1 13 26l1-3c5-13-5-28-14-37zm-4-39c-1 2 0 4 2 5l16 11c-3-8-5-16-5-24 0-13 6-27 8-40 6-25 9-49 13-74 4-24 8-47 10-71 0-13 0-28-4-41-4 9-4 20-5 29-8 69-15 138-35 205z"/>
  </g>
  <path fill="#ceffff" d="M690 755c-4-32-14-41-40-49-9-2-17-4-26-4-15-2-30 2-38 15-14 22-10 66 14 79 22 13 64 23 83 1 9-11 8-29 7-42zm97-273c-12-2-10 2-8 6 11-1 23 3 33 5 14 2 27 5 40 10 21 8 38 19 53 34-26-34-75-49-118-55zm144-215c16 31 14 68 10 102l-5 37c11-47 22-111-5-139zm-62 95 1-8c2-28 7-57 6-86 0-15-2-20-11-26l-7-4c7 11 9 27 10 40 3 21 2 43 2 64l-1 20zM760 260c1-7 0-14-2-21 0-1-1-2-3-2l-7 2c10 18 5 69 5 79-2 32-1 65 2 98-1-52 0-104 5-156zm-463 23c26-8 54-12 82-15 29-4 57-7 86 0 33 7 58 28 84 49l88 74 82 71v-3c0-13 1-11-9-20l-99-85c-35-27-68-59-106-81-65-33-207-18-261 30v1c-3 2-4 5-6 8 18-13 39-22 59-29zm-38 227c37-7 76-11 113-8 35 3 71 6 105 16-23-9-48-14-70-19-57-8-148-15-193 25l-2 2c15-8 31-12 47-16z"/>
  <path fill="#00afb3" d="M947 384c-9 48-26 97-40 134-1 2-1 5 1 7 10 12 6 6 14-8 8-18 15-37 21-55 3-26 5-52 4-78zm-237-11c0-17-3-42-1-67-6 18-10 37-14 55l-1 3a1293 1293 0 0 0 6 53l8 7c5 4 7 3 6-3l-4-48zm84 100 8 1c2 0 3 0 3-2 0-49 0-99 4-148-7 16-11 32-15 48a2704 2704 0 0 0 0 101z"/>
  <path fill="#88f9f9" d="M749 225c-20-16-44 5-50 24 4-5 9-10 14-13 11-8 20-7 28-1l8-3c5-1 6-2 2-6l-2-1zm204 32c-3-3-12-9-21-5-2 2-3 4 1 9 21 2 34 28 39 46 0-18-5-36-19-50zm-90-23c5 2 7 3 2-3-4-6-10-10-17-12-15-5-27 1-35 12 6-3 12-4 18-5 8-1 15 1 20 4l12 4z"/>
  <path fill="#a9cddd" d="M979 372c5-32 14-104-23-120 56 42-13 239-37 285v4l2 4a562 562 0 0 0 58-173zM744 215c13 4 24 20 22 48-8 68-6 135-3 202 0 2 2 4 4 4l4 1a1134 1134 0 0 1 0-192c2-14 3-27-1-40-3-11-14-21-26-23zm97 332c13 13 26 27 37 42 4 6 6 6 6-1v-3l-5-9c-9-12-23-24-38-29zm41-306c-5-10-12-18-20-22 16 12 22 35 20 55a1235 1235 0 0 1-26 216l6 3c14-62 22-126 25-189 1-21 3-44-5-63zM479 601c5-2 9-6 11-10-36 22-87 22-125 16-39-6-94-14-116-50-1 3-2 6-1 10 14 48 194 59 231 34z"/>
  <path fill="#a9cddd" d="M509 650c18-5 33-16 43-31 11-17 13-37 13-56 1-21 0-42-5-62-10-38-34-68-69-85 17 11 32 24 44 40 26 39 26 88 21 134-3 38-42 56-77 64 11 1 22-2 30-4zm217 258 14 1c-9-24-5-54-4-79 0-38 4-78-10-114-16-41-57-52-97-53-29-1-73-1-94 23 12-10 29-15 44-17 31-5 65-1 94 12 32 14 45 38 47 72 6 50 3 101 2 151 0 2 2 4 4 4z"/>
  <path fill="#e9fffb" d="M984 250c-58-65-199-83-272-51-30 11-42 26-45 57a431 431 0 0 0 1 133l4 4a630 630 0 0 1-1-123c1-13 3-26 10-38 10-19 36-28 56-34 25-7 51-8 77-6 64 3 140 25 182 76-3-7-7-12-12-18zM429 364c28 8 53 27 76 45 37 30 70 63 104 96a3532 3532 0 0 0-132-131c-17-16-39-25-62-29-49-7-101-1-149 13-11 4-22 9-32 16-13 9-13 11-9 18l3 4c30-24 74-29 110-34 30-5 61-7 91 2zm47 493c2 4 2 4 5 5l11 5c-6-12-10-27-11-40-2-28 5-57 5-86 0-16-1-33-5-50-1-6-4-14-8-21 18 48-11 141 3 187z"/>
</svg>
