<svg xmlns="http://www.w3.org/2000/svg" viewBox="0 0 512 512">
  <path fill="#ffb833" d="m283 100 10 2-10 4c0 1-2 10-4 11s-2-11-4-12l-11-2 11-4s1-10 3-11 5 12 5 12zm-134 31s12 2 11 3l-12 5c0 1-3 13-5 14s-3-14-5-15-14-1-13-3 12-4 13-5 2-12 4-13 7 14 7 14zm107 269 12 3-13 5c-1 1-2 13-5 14s-2-14-4-15-14-1-14-3 13-4 14-5 1-12 4-13 6 14 6 14z"/>
  <path fill="#ff832f" d="M30 295h275v44H30z"/>
  <ellipse cx="167.3" cy="339.5" fill="#ff832f" rx="137.3" ry="36.4"/>
  <ellipse cx="167.3" cy="295.1" fill="#ffdb99" rx="137.3" ry="36.4"/>
  <ellipse cx="167.3" cy="295.1" fill="#ffb833" rx="105.7" ry="28"/>
  <path fill="#ff832f" d="M62 228h274v44H62z"/>
  <ellipse cx="198.9" cy="272.4" fill="#ff832f" rx="137.3" ry="36.4"/>
  <ellipse cx="198.9" cy="228.1" fill="#ffdb99" rx="137.3" ry="36.4"/>
  <ellipse cx="198.9" cy="228.1" fill="#ffb833" rx="105.7" ry="28"/>
  <circle cx="355.8" cy="259.1" r="124.2" fill="#ff832f"/>
  <path fill="#ff832f" d="M315 135h49v248h-49z"/>
  <circle cx="323.1" cy="259.1" r="124.2" fill="#ffdb99"/>
  <circle cx="322" cy="258.6" r="106.8" fill="#ffb833"/>
  <path fill="#ff832f" d="M355 201s-15-19-45-7-24 56 0 63c16 4 22 10 25 17a19 19 0 0 1 2 9c-1 9-9 18-17 18-5-1-11-7-12-13-2-6 1-13-2-16a4 4 0 0 0-1 0l-10-1-12 1c-8 5-6 37 13 49a34 34 0 0 0 12 5c16 4 45-1 51-22 3-12 2-37-6-48s-28-14-31-24 3-18 14-16 7 16 10 19 16 7 20 1 1-25-11-35z"/>
  <rect width="20.2" height="28.1" x="313" y="176" fill="#ff832f" rx="5.5"/>
  <rect width="20.2" height="28.1" x="313" y="313" fill="#ff832f" rx="5.5"/>
  <path fill="#ffdb99" d="M345 201s-15-19-45-7-24 56 0 63c15 4 22 10 25 17a19 19 0 0 1 2 9c-1 9-9 18-17 18-6-1-11-7-12-13-2-6 1-13-2-16a4 4 0 0 0-1 0l-10-1-12 1c-8 5-6 37 13 49a34 34 0 0 0 11 5c17 4 46-1 52-22 3-12 1-37-6-48s-28-14-31-24 3-18 14-16 6 16 10 19 16 7 20 1 1-25-11-35z"/>
  <rect width="20.2" height="28.1" x="303" y="176" fill="#ffdb99" rx="5.5"/>
  <rect width="20.2" height="28.1" x="303" y="313" fill="#ffdb99" rx="5.5"/>
  <path fill="#fff" d="M93 215a3 3 0 0 1-1-5s11-7 33-10a3 3 0 0 1 1 4c-21 3-31 10-31 10a3 3 0 0 1-2 1zm122 0a2 2 0 0 1-1 0 3 3 0 0 1-1-3c0-1 5-14 14-24a3 3 0 1 1 4 4c-8 9-13 21-14 22a3 3 0 0 1-2 1zm199-25a3 3 0 0 1-2-1c-7-15-21-21-21-21a3 3 0 0 1 2-5c1 0 16 8 24 24a3 3 0 0 1-2 3 2 2 0 0 1-1 0zm-99 188c-17 0-34-10-34-10a3 3 0 0 1 2-5c1 0 16 10 33 10a3 3 0 0 1 0 5zM172 266c-12 0-34-3-34-3a3 3 0 0 1 0-5s22 3 34 3a3 3 0 0 1 0 5zM48 298a2 2 0 0 1-3-2 11 11 0 0 1 0-9c3-5 10-8 11-8a3 3 0 0 1 1 5c-1 1-6 2-7 5a6 6 0 0 0 0 5 3 3 0 0 1-2 3 2 2 0 0 1 0 1zm18-33a3 3 0 0 1-3-3v-13a3 3 0 0 1 5 0v13a3 3 0 0 1-2 3zm-30 66a3 3 0 0 1-2-2v-12a3 3 0 0 1 5 0v12a3 3 0 0 1-3 2zm124 3-33-2a3 3 0 0 1 0-5c1 0 30 3 41 2a3 3 0 1 1 1 5 79 79 0 0 1-9 0zm300-59a3 3 0 0 1-2-3 80 80 0 0 0-2-49 3 3 0 0 1 5-2c0 1 10 24 2 52a3 3 0 0 1-3 2zm-5 17c-5 0-4 7 0 7s4-7 0-7zm-4-94c-4 0-4 7 1 7s4-7-1-7zm-27-2c-4 0-4 7 1 7s4-7-1-7zm-50-46c-5 0-4 7 0 7s4-7 0-7zm-135 24c-5 0-4 7 1 7s3-7-1-7zm-30 55c-5 0-4 8 1 8s3-8-1-8zm124 141c-5 0-4 7 1 7s4-7-1-7zm-70-18c-5 0-4 8 0 8s4-8 0-8zm-78-25c-4 0-4 7 1 7s4-7-1-7zm-75-3c-5 0-4 7 0 7s4-7 0-7zm-73 15c-5 0-4 7 0 7s4-7 0-7zm20-37c-5 0-4 7 1 7s4-7-1-7zm10-31c-5 0-4 7 1 7s3-7-1-7zm51-18c-4 0-4 7 1 7s4-7-1-7zm66 10c-4 0-4 7 1 7s4-7-1-7zM79 216c-5 0-4 7 1 7s3-7-1-7zm63-19c-4 0-4 7 1 7s4-7-1-7zm153 12a2 2 0 0 1-1 0 3 3 0 0 1-2-4c1 0 3-8 18-8h1a3 3 0 0 1 0 5c-12-1-14 5-14 5a2 2 0 0 1-2 2zm45 56h-1a3 3 0 0 1-2-2c0-3-5-9-18-14a3 3 0 1 1 2-4c3 1 22 9 21 18a3 3 0 0 1-2 2zm-33 45c-12 0-17-12-19-18a3 3 0 0 1 5-1c0 1 4 15 16 13a3 3 0 1 1 1 5 21 21 0 0 1-3 1zm15-9c-5 0-4 7 1 7s4-7-1-7zm-13-63c-5 0-4 8 0 8s4-8 0-8zm14-43c-4 0-4 7 1 7s4-7-1-7z"/>
</svg>
