<svg xmlns="http://www.w3.org/2000/svg" xml:space="preserve" id="Layer_1" x="0" y="0" version="1.1" viewBox="0 0 512 512">
  <style>
    .st0{fill:#ffb833}.st1{fill:#ffc871}.st2{fill:#ffdb99}.st4{fill:#ff1a26}.st5{fill:#00ccc1}.st6{fill:#383333}.st7{fill:#fff}.st8{fill:#ff832f}
  </style>
  <g id="Paying">
    <path d="M52 63s10 1 10 3-10 3-11 4-2 11-4 11-2-11-4-12-12-1-12-3 11-3 12-4 1-10 3-11 6 12 6 12zm131 376s13 1 12 3-13 4-13 5-3 14-5 15-3-15-5-15-15-2-15-4 14-4 15-5 1-13 4-14 7 15 7 15zm97-388s13 1 12 3-12 4-13 5-3 14-5 14-3-14-5-15-15-1-14-4 13-4 14-5 2-13 4-13 7 15 7 15z" class="st0"/>
    <path d="M136 361s20 22 30 17-4-36-4-36 14 11 21 3-21-67-51-86-66 47-66 47l20 51s28 24 50 4z" class="st1"/>
    <path d="M28 449c-3-3-3-7-2-11 6-10 17-36 12-55-5-25-15-56-5-79 7-17 30-38 40-47 3-3 7-3 11-2l25 10c5 2 8 9 5 14-6 11-14 28-16 36v9c3 9 16 10 20 1 8-20 20-47 29-55 15-12 23 8 13 39s7 52-17 95c-16 28-20 49-21 60-1 5-4 9-9 10-19 2-63 4-85-25z" class="st2"/>
    <path d="M97 306s-5 9-1 25 8 22 11 21 16-43 16-43l-13-11-13 8z" class="st1"/>
    <path fill="#aaeeea" d="m31 270 71-200c2-8 11-12 19-9l111 39c9 3 13 12 10 20l-70 199c-3 8-12 12-20 10L41 289c-8-2-13-11-10-19z"/>
    <path d="m56 264 10-30c2-5 7-7 11-5l14 5c5 1 7 6 6 11l-11 30c-2 5-7 7-11 5l-14-5c-5-1-7-6-5-11z" class="st0"/>
    <circle cx="204.7" cy="138.3" r="14.5" class="st4"/>
    <path d="m94 279 63-177c1-4 5-6 9-5l11 4c4 1 6 5 4 9l-62 178c-1 4-6 6-10 4l-10-3c-4-2-6-6-5-10z" class="st5"/>
    <path d="M115 333s12-53 32-54 10 51 10 62l-31 8-11-16z" class="st2"/>
    <path d="m107 353-1-1c-7-11-17-31-10-43h1c-7 13 7 37 10 42l13-36 1 1-14 36v1zm47 24v-1l3-46 1-1v1l-3 46-1 1z" class="st6"/>
    <path d="m162 342-5-7h1l5 7h-1c0 1 0 1 0 0z" class="st6"/>
    <path d="M104 97c-2 0-3-1-3-3 6-21 11-26 13-26 6-2 18 3 20 4 2 0 2 2 2 3-1 1-2 2-3 1-6-2-15-4-18-3-2 1-6 11-9 22l-2 2zM38 334c-2 0-3-1-3-2 0-3 0-25 9-33h4c1 2 0 3-1 4-6 5-7 23-7 29l-2 2zm94-26c-2 0-3-2-2-4l6-9c5-7 10-9 13-7 2 0 2 2 2 3-1 1-3 2-4 1-2-1-9 7-13 15l-2 1zm64-87c-1 0-3-2-2-3l11-29 3-1c1 1 2 2 1 3l-10 28-3 2zM66 196c-1 0-3-2-2-4l10-29 4-2c2 0 2 2 1 4l-10 29-3 2z" class="st7"/>
    <path d="m458 239 10 4c7 2 10 9 8 15l-62 170c-2 6-9 9-15 7l-11-4c-6-2-9-9-7-15l61-170c3-6 10-9 16-7z" class="st8"/>
    <path d="m358 480-141-43c-10-3-15-12-13-22l74-295c5-19 25-31 44-26l142 43c17 6 27 25 21 42L380 469c-3 9-13 14-22 11z" class="st0"/>
    <path d="m317 148 122 37c10 3 16 13 13 23l-26 88c-3 10-14 15-24 12l-123-36c-10-3-15-14-12-24l26-88c3-10 14-15 24-12z" class="st5"/>
    <path d="m314 116 143 43c4 1 6 6 5 11v1c-2 4-6 7-11 6l-142-44c-5-1-7-6-6-10v-2c2-4 7-7 11-5z" class="st8"/>
    <path fill="#fff3e3" d="m342 31 135 42c2 0 3 2 2 4l-26 87c-1 2-3 3-4 2l-136-41c-2-1-3-2-2-4l27-88 4-2z"/>
    <path d="m264 291 26 7c2 1 4 4 3 7l-4 12c-1 3-4 5-6 4l-26-8c-2-1-4-3-3-6l4-13c1-3 4-4 6-3zm55 16 25 8c3 1 4 4 4 7l-4 12c-1 3-4 4-7 4l-25-8c-3-1-4-4-4-7l4-12c1-3 4-5 7-4zm54 17 26 8c2 0 4 3 3 6l-4 13c0 2-3 4-6 3l-26-8c-2 0-4-3-3-6l4-13c1-2 4-4 6-3zm-122 10 25 7c3 1 5 4 4 7l-4 12c-1 3-4 5-6 4l-26-8c-2-1-4-4-3-6l4-13c1-3 3-4 6-3zm55 16 25 8c3 1 4 4 4 6l-4 13c-1 3-4 4-7 3l-25-7c-3-1-5-4-4-7l4-12c1-3 4-5 7-4zm54 17 26 8c2 0 4 3 3 6l-4 13c-1 2-4 4-6 3l-26-8c-2 0-4-3-3-6l4-13c1-2 3-4 6-3zm-122 9 25 8c3 1 5 4 4 7l-4 12c-1 3-4 4-6 4l-26-8c-3-1-4-4-3-7l3-12c1-3 4-4 7-4zm55 17 25 8c3 0 4 3 3 6l-4 13c0 3-3 4-6 3l-25-7c-3-1-5-4-4-7l4-12c1-3 4-5 7-4z" class="st8"/>
    <path d="m347 410 26 7c2 1 4 4 3 7l-4 12c-1 3-4 5-6 4l-26-8c-2 0-4-3-3-6l4-13c0-3 3-4 6-3z" class="st4"/>
    <path d="M338 58c-2 0-3-2-3-4l6-16c0-1 1-2 3-2l19 6c2 1 2 2 2 3l-3 2-18-5-4 14-2 2zm119 70c-2 0-3-2-3-4l10-31c0-1 1-2 3-1s2 2 2 3l-10 31-2 2zm-176 12c-2 0-3-2-2-3 1-4 10-37 26-38 2 0 3 2 3 3s-1 2-3 2c-10 1-19 24-22 34l-2 2zm15 32c-2 0-3-2-2-4 3-6 12-18 30-13 1 0 2 1 2 3 0 1-2 2-3 1-18-4-24 11-25 11l-2 2zm102 127c-2 0-3-2-2-3l3-2c4 1 7 1 10-1 7-4 9-15 9-15 0-2 2-3 3-2 1 0 2 1 2 3 0 0-2 13-11 18-4 3-9 4-14 2zM236 437c-1-1-16-3-21-9-1-1-4-7 1-27 0-2 2-2 3-2l2 3c-2 9-4 21-2 23 3 3 13 6 18 7 2 0 3 1 3 3l-3 2h-1zm119 34c-2 0-2-2-2-3l3-2s5 2 9-1c8-4 11-18 11-18 1-2 2-3 3-2 2 0 2 1 2 3 0 0-3 16-13 22-4 2-9 3-13 1zm78-165c-2 0-3-1-2-3l18-52c0-2 2-2 3-2l2 3-19 53-2 1zm35-39c-2 0-3-2-2-4 4-9-1-14-2-14v-3c1-1 2-2 3-1 3 2 8 9 3 20l-2 2zm-68 162c-1-1-2-2-1-4 0-1 2-2 3-1h3c4-2 6-9 6-12l3-2 2 3c-1 9-7 19-16 16zm24-175c-5-2-6 6-2 7s6-6 2-7zm-47 33c-4-2-6 6-1 7s6-6 1-7zm-85-102c-4-2-6 6-1 7s6-6 1-7zm52-23c-4-2-6 6-1 7s6-6 1-7zm-64-11c-4-1-6 6-1 7s6-5 1-7zm183 128c-4-2-6 6-1 7s6-6 1-7zm-6-49c-4-2-6 6-1 7s6-6 1-7zm-31 89c-5-2-6 6-2 7s6-6 2-7zm-5 71c-4-1-6 6-1 8s6-6 1-8zm-80 71c-5-1-7 6-2 8s6-6 2-8zm44-41c-5-1-7 6-2 8s6-6 2-8zm-132 14c-5-1-6 6-2 8s7-6 2-8zm-29-57c-5-1-6 6-2 8s6-6 2-8zm229-241c-5-2-6 6-2 7s6-6 2-7zM334 73c-4-1-6 6-1 7s6-6 1-7zm45-26c-4-2-6 6-1 7s6-6 1-7zm90 28c-5-2-6 6-1 7s6-6 1-7zM42 350c-5 0-3 8 2 7s3-8-2-7zm111-49c-5 1-3 8 2 7s3-8-2-7zm-90-94c-5 1-3 8 1 7s4-7-1-7zm21-68c-5 1-4 8 1 8s3-8-1-8zm61-63c-5 1-3 8 2 7s3-7-2-7zm62 102c-5 0-4 7 1 7s4-7-1-7zm-20 53c-5 0-4 8 1 7s3-8-1-7z" class="st7"/>
  </g>
</svg>
