<svg xmlns="http://www.w3.org/2000/svg" viewBox="0 0 512 512">
  <g data-name="Qr Code">
    <path fill="#ffb833" d="M244 65s10 1 9 2l-10 4-3 11c-1 1-2-11-4-12l-11-2 11-4c1-1 1-10 3-10s5 11 5 11zm117 253s12 1 12 3-12 4-12 4-3 14-5 14-3-14-4-14-14-1-14-3 13-4 13-5 2-12 4-12 6 13 6 13zM55 147s12 1 12 3-12 3-12 4-3 13-5 14-3-14-5-14-13-2-13-4 12-4 13-4 2-12 4-13 6 14 6 14z"/>
    <rect width="213.3" height="349.2" x="98" y="111" fill="#ffb833" rx="20.6"/>
    <rect width="173.4" height="309.2" x="118" y="125" fill="#aaeeea" rx="10.6"/>
    <rect width="61.5" height="20.6" x="174" y="115" fill="#ffb833" rx="10.2"/>
    <rect width="215.3" height="215.3" x="267" y="56" fill="#ff8d93" rx="14.2"/>
    <rect width="113.6" height="99.5" x="147" y="210" fill="#00ccc1" rx="11"/>
    <rect width="78.4" height="26.9" x="165" y="322" fill="#00ccc1" rx="10.5"/>
    <path fill="#ff8d93" d="m271 226-46 35a5 5 0 0 0 3 10h64l4-31z"/>
    <rect width="172" height="167.3" x="288" y="80" fill="#fff3e3" rx="8.4"/>
    <path fill="#383333" d="M356 159h-43a10 10 0 0 1-9-9v-43a10 10 0 0 1 9-9h43a10 10 0 0 1 10 9v43a10 10 0 0 1-10 9zm-42-10h42v-41h-42zm42 84h-43a10 10 0 0 1-9-10v-42a10 10 0 0 1 9-10h43a10 10 0 0 1 10 10v42a10 10 0 0 1-10 10zm-42-10h42v-42h-42z"/>
    <rect width="14.9" height="14.9" x="326" y="194" fill="#383333" rx="2"/>
    <rect width="14.9" height="14.9" x="326" y="121" fill="#383333" rx="2"/>
    <path fill="#383333" d="M382 159a5 5 0 0 1-5-5v-47a11 11 0 0 1 11-11h45a11 11 0 0 1 11 11v15a11 11 0 0 1-11 11h-24a1 1 0 0 0-1 1v12a1 1 0 0 0 1 1h30a5 5 0 0 1 0 10h-30a11 11 0 0 1-11-11v-12a11 11 0 0 1 11-11h24a1 1 0 0 0 1-1v-15a1 1 0 0 0-1-1h-45a1 1 0 0 0-1 1v48a5 5 0 0 1-5 4zm53 74h-52a9 9 0 0 1-9-9v-31a9 9 0 0 1 9-9h31a9 9 0 0 1 9 9v13a9 9 0 0 1-9 9h-17a5 5 0 0 1 0-10h16v-11h-29v29h50v-47h-55a5 5 0 0 1 0-10h56a9 9 0 0 1 9 9v49a9 9 0 0 1-9 9z"/>
    <path fill="#fff" d="M112 153a3 3 0 0 1-2-3v-23a8 8 0 0 1 8-8h19a3 3 0 0 1 0 5h-19a3 3 0 0 0-3 3v23a3 3 0 0 1-3 3zm18 294h-9a16 16 0 0 1-16-16v-14a3 3 0 0 1 5 0v14a11 11 0 0 0 11 11h9a3 3 0 0 1 0 5zm171-68a3 3 0 0 1-2-2v-45a3 3 0 0 1 5 0v45a3 3 0 0 1-3 2zm-82-161h-31a3 3 0 0 1 0-5h31a3 3 0 0 1 0 5zm28 88h-10a3 3 0 0 1 0-5h10a5 5 0 0 0 5-5v-8a3 3 0 0 1 5 0v8a10 10 0 0 1-10 10zm-94-41a3 3 0 0 1-2-2v-18a3 3 0 0 1 5 0v18a3 3 0 0 1-3 2zm66 71h-31a3 3 0 1 1 0-5h31a3 3 0 1 1 0 5zm59-226a3 3 0 0 1-2-3V81a14 14 0 0 1 14-14h23a3 3 0 0 1 0 5h-23a9 9 0 0 0-9 9v26a2 2 0 0 1-3 3zm195 60a3 3 0 0 1-2-2v-47a3 3 0 0 1 5 0v47a3 3 0 0 1-3 2zm-75 93h-42a3 3 0 0 1 0-5h42a3 3 0 0 1 0 5zm18-7c-4 0-4 7 1 7s3-7-1-7zm-81 0c-4 0-4 7 1 7s4-7-1-7zm138-72c-5 0-4 7 0 7s4-7 0-7zm-1-84c-4 0-4 6 1 6s4-6-1-6zM332 64c-4 0-3 7 1 7s4-7-1-7zm-53 55c-4 0-3 7 1 7s4-7-1-7zm-43 94c-5 0-4 7 0 7s4-7 0-7zm-66-1c-4 0-4 7 1 7s4-7-1-7zm-16 63c-5 0-4 7 0 7s4-7 0-7zm63 25c-4 0-4 6 1 6s3-6-1-6zm-63-184c-5 0-4 7 0 7s4-7 0-7zm-43 48c-4 0-4 7 1 7s3-7-1-7zm188 145c-5 0-4 7 1 7s3-7-1-7zm4 84c-5 0-4 7 1 7s3-7-1-7zm-151 49c-5 0-4 7 1 7s3-7-1-7zm-46-55c-4 0-4 7 1 7s3-7-1-7zm129-58c-5 0-4 7 0 7s4-7 0-7zm-60 0c-4 0-3 7 1 7s4-7-1-7z"/>
  </g>
</svg>
