<svg xmlns="http://www.w3.org/2000/svg" viewBox="0 0 512 512">
  <g data-name="Barcode Scanner">
    <path fill="#ffb833" d="M148 43s10 1 9 2l-10 4c-1 1-2 11-4 11s-2-11-3-11-12-1-12-3 11-3 11-4 2-10 4-10 5 11 5 11zm252 52s12 1 12 3-12 3-13 4-2 14-5 14-2-14-4-14-14-1-14-3 13-5 14-5 1-13 3-13 7 14 7 14zM184 353l12 3-13 5c-1 1-2 13-5 14s-2-14-4-15-14-1-14-3 13-4 14-5 1-12 3-13 7 14 7 14z"/>
    <rect width="184.8" height="121.4" x="25" y="99" fill="#aaeeea" rx="7"/>
    <rect width="8.8" height="91.5" x="50" y="114" fill="#00ccc1" rx="4.1"/>
    <rect width="8.8" height="91.5" x="71" y="114" fill="#00ccc1" rx="4.1"/>
    <rect width="8.8" height="91.5" x="92" y="114" fill="#00ccc1" rx="4.1"/>
    <rect width="8.8" height="91.5" x="113" y="114" fill="#00ccc1" rx="4.1"/>
    <rect width="8.8" height="91.5" x="134" y="114" fill="#00ccc1" rx="4.1"/>
    <rect width="8.8" height="91.5" x="155" y="114" fill="#00ccc1" rx="4.1"/>
    <rect width="8.8" height="91.5" x="176" y="114" fill="#00ccc1" rx="4.1"/>
    <circle cx="331.7" cy="365.8" r="23.1" fill="#ffb833"/>
    <path fill="#ff832f" d="m388 469-90-43 106-196 72 35z"/>
    <rect width="128" height="38.8" x="273" y="430" fill="#ffb833" rx="16.7" transform="rotate(16 337 449)"/>
    <path fill="#ffb833" d="M343 146a413 413 0 0 0-72-18 15 15 0 0 1 2 8l-24 159a9 9 0 0 1-4 6 427 427 0 0 0 65 22c95 25 175 10 188-33 12-45-53-109-155-144z"/>
    <path fill="#ff832f" d="M287 141a15 15 0 0 0-2-8 23 23 0 0 0-13-12c-9-3-18 0-19 8v1l-23 160v1c0 6 6 13 14 15 6 2 11 1 14-2a9 9 0 0 0 4-5z"/>
    <path fill="#ff1a26" d="M219 164H17a5 5 0 1 1 0-10h202a5 5 0 0 1 0 10zM15 108a5 5 0 0 1-5-5V86a5 5 0 0 1 5-5h19a5 5 0 0 1 0 10H20v12a5 5 0 0 1-5 5zm205 0a5 5 0 0 1-5-5V91h-15a5 5 0 0 1 0-10h20a5 5 0 0 1 5 5v17a5 5 0 0 1-5 5zm0 127h-20a5 5 0 0 1 0-10h15v-12a5 5 0 0 1 10 0v17a5 5 0 0 1-5 5zm-186 0H15a5 5 0 0 1-5-5v-17a5 5 0 0 1 10 0v12h14a5 5 0 1 1 0 10z"/>
    <path fill="#fff" d="M34 120a3 3 0 0 1-2-2v-13a3 3 0 0 1 2-2h13a3 3 0 0 1 0 5H37v10a3 3 0 0 1-3 2zm133-13h-16a3 3 0 0 1 0-5h16a3 3 0 0 1 0 5zM64 216H42a3 3 0 0 1 0-5h22a3 3 0 0 1 0 5zm140 0h-17a3 3 0 1 1 0-5h15v-8a3 3 0 0 1 5 0v10a3 3 0 0 1-3 3zm-1-32c-5 0-4 7 1 7s4-7-1-7zm-35 25c-5 0-4 7 0 7s4-7 0-7zm-89 1c-4 0-4 7 1 7s4-7-1-7zm-45-80c-5 0-4 7 0 7s4-7 0-7zm30-29c-5 0-4 7 1 7s3-7-1-7zm67 0c-5 0-4 7 0 7s4-7 0-7zm50 1c-5 0-4 7 1 7s4-7-1-7zm80 89a3 3 0 0 1-2-2l5-44a3 3 0 1 1 5 1l-5 43a3 3 0 0 1-3 2zm195 38a2 2 0 0 1-2-1c-14-21-39-33-39-33a3 3 0 0 1 2-5c1 1 26 13 41 35a3 3 0 0 1-2 4zm-134 86h-1c-22-2-42-11-43-12a3 3 0 0 1 2-4s20 9 42 11a3 3 0 0 1 0 5zm121 4a3 3 0 0 1 0-5c16 0 32-11 32-12a3 3 0 0 1 3 4c-1 1-18 13-35 13zm-127 44a2 2 0 0 1-1 0 2 2 0 0 1-2-3c2-5 8-13 19-12a3 3 0 0 1-1 5c-9-1-13 8-13 8a3 3 0 0 1-2 2zm-33 74a2 2 0 0 1 0-1 2 2 0 0 1-2-3 13 13 0 0 1 6-6c5-4 13-4 22-1a3 3 0 0 1-1 4c-19-5-22 4-22 5a3 3 0 0 1-3 2zm51-57a2 2 0 0 1-1 0 3 3 0 0 1-1-4l21-35a3 3 0 0 1 4 3l-20 35a3 3 0 0 1-3 1zm65 36a2 2 0 0 1-1 0 2 2 0 0 1-1-3l15-31a3 3 0 0 1 4 2l-14 31a2 2 0 0 1-3 1zm-23 35a3 3 0 0 1-1 0l-26-8a3 3 0 1 1 1-5l27 8a3 3 0 0 1-1 5zm12-1c-4 0-4 7 1 7s4-7-1-7zm-60-19c-4 0-4 7 1 7s4-7-1-7zm-3-43c-5 0-4 7 1 7s3-7-1-7zm70 36c-5 0-4 7 0 7s4-7 0-7zm30-63c-5 0-4 7 1 7s4-7-1-7zm-108 9c-5 0-4 7 0 7s4-7 0-7zm20-58c-4 0-4 7 1 7s4-7-1-7zm88 2c-5 0-4 8 1 8s4-8-1-8zm61-25c-5 0-4 7 0 7s4-7 0-7zm-14-51c-5 0-4 7 0 7s4-7 0-7zm-75-60c-5 0-4 8 1 8s4-8-1-8zm-141 35c-5 0-4 7 1 7s4-7-1-7zm11-86c-4 0-3 7 1 7s4-7-1-7z"/>
  </g>
</svg>
