<svg xmlns="http://www.w3.org/2000/svg" viewBox="0 0 1200 1200">
  <path fill="#fff" d="M873 872c-1-141 0-281 1-422V346c0-22 3-43 2-65-2-49-39-63-79-77-48-17-98-32-148-37-46-4-89 9-133 19l-100 23c-23 5-50 9-71 21-25 14-20 40-20 65v546c0 30-9 73 15 96 36 34 96 50 142 65 27 9 55 17 83 24 23 5 46 12 69 5 57-17 113-39 167-61 22-9 55-16 67-39 9-18 5-39 5-59 0-15 0 1 0 0z"/>
  <path fill="#68182b" d="m855 295-3-32c-5-17-28-24-44-31-54-21-145-49-203-43-69 15-139 30-208 48-12 4-48 8-50 23l1 603c0 16-1 32 1 48 1 5 5 9 9 12 13 11 29 18 45 25a1011 1011 0 0 0 196 62c12 3 24 2 35-3 70-23 140-49 208-78 15-12 7-39 8-57l1-84 1-451v-8c5-10 3-23 3-34z"/>
  <path fill="#00ebed" d="m836 874-25 10h-5a743 743 0 0 0-123-47c-12-3-9-7-2-11l22-17h6c43 15 90 29 127 58 4 2 6 4 0 7z"/>
  <path fill="#67d5e8" d="m614 944 1-17c0-3 1-5 4-5a44 44 0 0 0 22-9c16-16 6-36-12-43-5-2-8-4-1-8a1219 1219 0 0 0 34-21c42 12 84 26 124 44 8 4 9 5-1 9-53 20-107 42-161 59-7 2-10 2-10-9z"/>
  <path fill="#00ebed" d="m370 875-9-7c-3-3-2-7 3-9 27-10 54-18 82-27l67-20c5-1 8 0 9 4 5 9 0 20-7 28s-9 7-24 12a3121 3121 0 0 0-103 29l-18-10z"/>
  <path fill="#8edbff" d="M384 290c37 19 212 80 245 66 63-20 125-44 187-67l20-8c9-4 8-5 9 5v30c0 10-7 17-17 20l-37 15c-57 21-113 43-171 60h-12c-45-5-225-54-250-87v-3l-1-38c0-4 4-6 7-4l20 11z"/>
  <path fill="#00ebed" d="M608 245c29-7 64 6 75 35 22 37-101 40-121 18-2-2-3-5-2-9 4-22 26-40 48-44z"/>
  <path fill="#73ffd8" d="M556 307c16 12 36 13 54 14l3 3c0 34 2 25-32 20a891 891 0 0 1-55-16l3-32c1-16 8-26 23-26 6 0 5-1 2 4-5 11-8 25 2 33zm70 15c30-1 84-10 66-48-3-5-3-5 3-4 25 6 50 12 74 21 10 3 3 4 0 5l-122 44c-29 9-25 13-24-15 0-2 1-3 3-3z"/>
  <path fill="#fac135" d="M562 260c-45-5-43 31-45 64 0 2-2 3-3 2-7-2-15-3-20-6l-1-2c1-16 0-33 4-48v-1c13-30 53-32 83-28 11 1 3 3 1 4l-17 14-2 1z"/>
  <path fill="#73ffd8" d="m484 299-1 12c0 3-3 5-6 4l-28-9c-8-3-9-7 0-9l25-6c13-3 10 0 10 8z"/>
  <path fill="#ceffff" d="M643 790c16 3 31 7 45 12 9 3 10 3 2 9a975 975 0 0 1-30 20c-13-3-26-7-40-7-5-1-5-1-5-6v-9c0-2 1-4 3-5l21-13 4-1z"/>
  <path fill="#00ebed" d="M637 909c-5 4-12 6-18 7-6 2-5-2-5-7 10 0 25-8 18-20-2-3-5-5-9-6-7-2-10-1-9-9 20 0 39 17 23 35zm-109-94-1-2c-1-2 0-5 2-5 24-7 48-14 72-19 2-1 4 1 4 3a10457 10457 0 0 0-3 33l-74 20c-3 1-7 1-4-5 5-7 8-16 4-25z"/>
  <path fill="#ceffff" d="M536 406c7 0-11 12-13 15v-19l13 4z"/>
  <path fill="#fac135" d="M514 404c0 27 1 26-15 40-9 7-10 3-10-5l1-39c0-6 0-7 7-5l13 3c2 1 4 3 4 6z"/>
  <path fill="#00ebed" d="M562 550c17 7 14 60-8 58-22-4-19-67 8-58z"/>
  <path fill="#fbf199" d="M529 581c1 8 2 18 7 25-4-1-9-3-12-7l-2-4c0-12-2-24 0-35 4-5 9-8 15-10-6 9-8 22-8 31zm56 98c-28 6-57 18-87 22-20-1-41-9-57-20v-15c9 5 19 9 29 12 26 11 53 1 79-6l35-10c1 6 2 11 1 17h1-1z"/>
  <path fill="#ff8e5b" d="M576 654c-28 7-56 19-85 19-17-3-33-9-47-17 17-5 35-7 52-10 19-2 36-9 55-7 4 1 39 13 25 15z"/>
  <path fill="#fbf199" d="M448 594c0 8 2 17 6 24-14-3-20-17-19-30 1-12 8-22 20-25-6 9-8 21-7 31z"/>
  <path fill="#00ebed" d="M472 621c-22-4-19-67 8-58 17 7 14 60-8 58z"/>
  <path fill="#fac135" d="M512 580v47c0 4-3 7-7 7l-8 2c-9 2-9 2-9-7v-1l2-4c12-17 16-50 0-66l-2-5 1-90 2-6 9-7c13-12 12-9 12 6v124z"/>
  <path fill="#ceffff" d="M477 463c-35 29-71 57-109 83-8 6-11 3-11-5v-50c0-2 1-4 3-5 38-25 73-53 108-81 14-11 12 1 12 6a6199 6199 0 0 0-3 52z"/>
  <path fill="#73ffd8" d="m358 843-1-280c0-2 1-4 3-5 39-22 74-53 109-82 4-3 10 0 10 4l-1 72h-2c-16-2-36 2-45 16-10 16-8 41 7 53 10 8 23 10 34 10 4-1 7 3 6 7-1 2-3 2-9 3-9 3-33 3-38 11v29c0 5 2 7 6 10a134 134 0 0 0 58 19c30-2 60-13 89-21 17-2 10-22 10-33 1-15-42-29-54-28-21 3-19 5-18-9 0-4 4-7 7-5 8 3 18 4 26 4 22 0 28-28 27-46 0-14-8-32-24-32-9-2-19-1-28 2-4 2-8-1-8-5a6195 6195 0 0 1 3-109l18-18c2-1 4-2 6-1l48 11 10 1c3 0 5 3 5 6l-5 276c0 2-1 4-3 5-26 16-50 34-74 53l-16 13c-4 5-8 13-9 18-1 16 19 7-31 22-36 11-73 20-109 34-3 2-7-1-7-5zm307-385 11 13v1c5 14-11 25-20 34l-28 25c-6 5-8 4-8-3l2-104c0-2 1-4 3-4l9-3 72-24c17-6 10 2 5 7l-25 26c-8 9-25 18-21 32z"/>
  <path fill="#73ffd8" d="M511 795c-2-10 10-19 16-24 24-19 47-37 73-53 9-6 7-1 7 3l-1 53c0 2-2 4-4 4a1436 1436 0 0 0-88 21l-3-4z"/>
  <path fill="#ff8e5b" d="M628 893c1 2 0 3-1 5-2 3-7 4-11 5s-1-13-2-16c5 0 12 2 14 6zm-37 4c-2-7 7-9 12-10h1c0 5 2 13 0 16-5-1-11-2-13-6z"/>
  <path fill="#00ebed" d="M604 881c-26 2-26 26 0 28 1 8 0 8-8 6-10-2-23-10-20-22s14-17 25-19c5-2 3 3 3 7z"/>
  <path fill="#ceffff" d="m619 833 23 4c7 1 7 4 1 7l-22 15c-6 4-7 2-7-4l1-17c0-3 2-5 4-5z"/>
  <path fill="#00ebed" d="M615 799c-1-18 4-12 18-11l-18 11z"/>
  <path fill="#ceffff" d="M842 365c0 2-1 5-3 6L731 480c-3 3-6 7-6 12 2 16 22 16 7 37-29 31-63 59-99 83-15 10-15 10-14-8l1-54c0-3 1-5 3-7l33-29c10-9 22-18 26-32 2-5 1-11-2-16-3-4-10-8-10-14 1-3 4-6 7-8l27-28 34-34 3-2 41-15 47-18c13-6 13-4 13 8v10z"/>
  <path fill="#73ffd8" d="M357 452V352c0-9 5-11 12-7 7 5 15 8 22 11 24 11 49 21 75 29 12 4 9 8 2 13-28 22-55 44-84 64-30 19-27 30-27-10z"/>
  <path fill="#67d5e8" d="M482 868c-18 11-38 21-55 34l-23-9 78-25zm-1 8a224 224 0 0 0 22-14l90-24c12-3 12-4 12 8v14c0 8 2 7-7 9-12 2-22 8-27 19-6 18 10 31 26 34 8 1 7 2 8 8v13c0 8-3 11-11 9l-13-3c-44-10-88-23-131-38-13-5-19-6-2-17l33-18z"/>
  <path fill="#73ffd8" d="M798 833c-24-11-49-21-74-30-9-3-6-5-1-9 38-31 75-64 108-100 13-13 10-5 10 4a85904 85904 0 0 1-1 148c0 14 0 10-8 5-11-7-22-13-34-18z"/>
  <path fill="#ceffff" d="M841 656v10c0 6-2 11-6 15a923 923 0 0 1-129 116l-43-12c-13-4-7-5-1-9a927 927 0 0 0 171-148c11-12 8-1 8 4v24z"/>
  <path fill="#67d5e8" d="M359 259c26-11 55-16 83-23l144-33c13-2 25-6 39-5 41 0 184 32 215 64 3 3 2 5 0 7l-46 18h-5a711 711 0 0 0-108-30c-3-1-5-5-8-7a77 77 0 0 0-66-15h-3c-24-6-50-7-74-2-20 5-41 19-44 41-1 2-3 5-6 5a3430 3430 0 0 0-64 14c-15-6-30-12-44-20-6-4-11-7-14-13l1-1z"/>
  <path fill="#8edbff" d="M839 916c-1 4-5 6-8 7l-47 19c-55 21-110 43-166 59l-1 1c-19 0-37-6-56-10a831 831 0 0 1-188-70l-8-5c-6-6-7-7-7-15v-16c0-6 0-7 6-3 40 25 87 38 132 53 39 12 78 25 119 28h1c69-18 135-47 202-72l17-7c5-2 5-1 6 4 0 9 1 18-2 27z"/>
  <path fill="#73ffd8" d="M741 478v1c-24 19 0 17 2 36 3 26-95 96-123 112l-2 4-2 141c0 2 1 4 4 4a86 86 0 0 1 3 1c27 4 22 4 44-11a944 944 0 0 0 174-157l1-221c0-10 1-12-8-3l-93 93zm-58 249c-6 10-21 15-32 12-8-2-9-11-9-18l1-57c1-14 20-23 32-18 8 4 8 12 8 20l1 48c0 5 1 9-1 13z"/>
  <path fill="#00ebed" d="M652 721v-55c0-6 9-11 15-11 7 0 6 5 6 10l1 56c-1 5-8 8-14 9-9 1-8-2-8-9z"/>
  <path fill="#f3af79" d="M497 696c-11 1-22-4-31-8-10-4-19-9-25-17v10c16 11 37 19 57 20 30-4 59-16 87-22h1-1v-6a1045 1045 0 0 1-88 23zm24-124 1 23 2 4c3 4 8 6 12 7l-3-7a47 47 0 0 1-12-27zm-82 26-4-6c0 12 7 24 19 26l-4-8c-4-3-8-7-11-12z"/>
  <path fill="#fff7cf" d="M455 563c-7 2-13 6-16 12 4-4 9-6 14-9l2-3zm67-3v7c3-3 6-5 10-6l5-11c-6 2-11 5-15 10z"/>
  <path fill="#65b0b9" d="M786 885a728 728 0 0 0-15-5c3 7-5 12-10 15-6 4-14 6-21 9a1265 1265 0 0 1-86 28c-11 3-29 9-40 3v9c0 11 3 11 10 9 54-17 108-39 161-59 10-4 9-5 1-9zm-205 64 13 3c8 2 11-1 11-9a1421 1421 0 0 1-1-16c-14 10-33 5-50 2l-33-7c-16-3-63-13-57-37l-16 9c-17 11-11 12 2 17 43 15 87 28 131 38zm158-687a402 402 0 0 0-71-15l5 3c3 2 5 6 8 7l1 1a711 711 0 0 1 112 29l27-11c-27 1-55-6-82-14zm-319 32 60-15c3 0 5-3 6-5 1-9 5-16 10-22-16 4-32 10-48 16-22 9-53 12-77 4l1 1a299 299 0 0 0 48 21zm26 595c-8 2-18 4-23-2l-19 6 23 9 19-13z"/>
  <path fill="#a6f4ff" d="M825 250c-48-27-164-52-200-52-14-1-26 3-39 5l-144 33-50 12 52-10 89-17c29-5 57-15 86-17 26-2 53 4 78 9 37 8 72 20 108 31l20 6z"/>
  <path fill="#73b9d5" d="M358 324c25 33 205 82 250 87h12c58-17 114-39 171-60l37-15c10-2 16-9 17-19a641 641 0 0 1-79 35c-43 16-86 30-130 42-26 8-52 2-79-4l-78-21a577 577 0 0 1-106-43c-8-5-13-13-16-22a649 649 0 0 0 1 20zm452 596-53 20-68 25c-21 8-42 17-64 22-25 5-53-4-76-10a930 930 0 0 1-156-54c-12-6-27-14-35-25v4c0 8 1 9 7 15l8 5h1c58 33 123 52 187 70 19 4 37 10 56 10l1-1c56-16 111-38 166-59l47-19c3-1 7-3 8-7l2-9c-10 6-21 10-31 13z"/>
  <path fill="#ceffff" d="M816 289c-62 23-124 47-187 67-33 14-208-47-245-66a168 168 0 0 1-22-11c13 12 30 19 46 27a1876 1876 0 0 0 200 61c9-1 18-4 27-7a3078 3078 0 0 0 111-37 823 823 0 0 0 90-42l-20 8zm19 596-17 7c-67 25-133 54-202 72h-1c-41-3-80-16-119-28-45-15-92-28-132-53l-2-2c9 12 25 19 37 24 26 12 52 23 79 32 31 12 64 19 97 27l37 8c6 0 11-2 16-4 27-8 54-19 81-29l90-35 23-9 18-9c0-2-2-3-5-1z"/>
  <path fill="#00afb3" d="M667 710c-1 8-4 14-8 20h1c6-1 13-4 14-9l-1-56c0-5 1-10-6-10h-5c6 7 5 24 5 30v25zM528 845l74-20c2 0 3-2 3-3v-8c-10 8-24 11-36 14-11 4-29 10-36-2l-3-5c0 7-2 13-6 19-3 6 1 6 4 5zm-13-1c6-8 11-17 8-26-1 5-2 10-6 14-4 5-12 8-18 11-16 7-32 12-48 17-15 5-30 10-45 13-10 2-20 4-30 1l-13-4 7 5 18 10h6l97-29c15-5 17-4 24-12zm89 65c-12 4-25-5-28-18v2c-3 12 10 20 20 22 8 2 9 2 8-6zm37-22c0 4 0 9-3 13-3 6-17 13-24 11 0 4 0 7 5 5 6-1 13-3 18-7 7-8 7-16 4-22zm194-13-22 1c-16-1-33-11-48-17-16-6-31-13-48-18-7-2-15-4-22-8-6-4-6-9-3-14l-11 8c-7 4-10 8 2 11a923 923 0 0 1 128 47l24-10zM683 280l-3-6c1 4 0 8-2 12-3 6-10 9-16 11-13 5-27 5-40 5-12-1-24-2-36-6-13-5-19-16-13-30l3-5c-8 8-14 17-16 28-1 4 0 7 2 9 20 22 143 19 121-18zM556 549c-22 1-22 55-2 59 7 1 12-4 15-11-7 6-17 2-20-6-2-3-2-8-2-12 0-10 2-22 9-30zm59 250 12-7h-12v7zM472 621c10 1 15-9 18-20l-2 4c-3 6-11 15-18 5l-4-11c-2-11-2-26 4-36-18 6-17 54 2 58z"/>
  <path fill="#88f9f9" d="M658 262c-8-7-19-9-29-10-11-1-36 1-37 15-2 22 50 20 66 10 6-4 5-11 0-15zM556 565v18c2 10 10 8 11 0l-1-19c-3-11-9-6-10 1zm-82 13c-1 6-1 13 1 19 2 9 9 7 10-1 1-6 1-13-1-19-2-11-9-6-10 1zm131 214c0-2-2-4-4-3a1743 1743 0 0 0-36 11c13-2 27-5 40-4v-4zm-135 33-24 7c-28 9-55 17-82 27-3 2-5 4-5 6 24-10 50-17 74-26l37-14zm358 35c-36-24-79-37-119-51h-6l-5 4c27 7 53 15 79 25 18 6 34 14 51 22z"/>
  <path fill="#ff564d" d="M591 897c2 4 8 5 13 6v-8l-4 2c-3 1-7 0-9-2v2zM491 673c29 0 57-12 85-19 6-1 3-4-3-6l-29 9a104 104 0 0 1-90-3l-10 2c14 8 30 14 47 17zm125 230c4-1 9-2 11-5l1-4c-4 2-10 3-14 0 0 5-1 10 2 9z"/>
  <path fill="#a9cddd" d="M523 412v9l8-7-8-2zm-46 51 2-6v-28c-11 21-31 40-50 55-21 19-46 34-72 44v13c0 8 3 11 11 5 38-26 74-54 109-83zm351 206c-14 18-30 34-46 50-16 17-33 33-51 47-15 11-30 22-48 24a833 833 0 0 1 27 6c45-34 88-73 125-115 4-4 6-9 6-15v-16l-13 19zm-96-140c15-21-5-21-7-37 0-5 3-9 6-12l108-109c2-1 3-4 3-6v-10c-7 9-16 17-25 25-15 12-31 24-46 38l-47 39c-9 9-24 22-20 37 2 7 8 13 10 21 4 12-4 24-12 32a406 406 0 0 1-69 65c36-24 70-52 99-83zm-44 273-17-5c1 4 1 8-1 13-2 6-8 11-14 15-2 2-5 3-7 3a1369 1369 0 0 1 15 2l26-19c8-6 7-6-2-9zm-45 42c6-3 6-6-1-7l-10-2c1 7-1 14-5 20l16-11z"/>
  <path fill="#e9fffb" d="M833 628a1015 1015 0 0 1-128 117 667 667 0 0 0 136-118c1-4 0-7-8 1zM677 505c8-9 16-18 15-30-1-8-4-16-2-24 1-7 5-13 10-18 7-8 16-15 24-22l52-44-35 13-3 2-34 34-27 28c-3 2-6 5-7 8 0 6 7 10 10 14 3 5 4 11 2 16-4 14-16 23-26 32l-33 29c-2 2-3 4-3 7v4a530 530 0 0 0 57-49zm-224-88a2030 2030 0 0 1-96 74v5a650 650 0 0 0 96-79z"/>
  <path fill="#ee9e2b" d="M502 448c5 5 5 27 5 30v46c1 37 1 75-6 111l4-1c4 0 7-3 7-7V456c0-15 1-17-10-8zm12-44c0-3-2-5-4-6l-9-2c2 6 2 14 3 21 1 8 1 17-3 24 13-11 13-12 13-37zm-1-135c-6 12-7 27-7 40l-1 15 9 2c1 1 3 0 3-2 2-33 0-69 45-64l2-1 7-7c-20-6-47-1-58 17z"/>
  <path fill="#6db4a6" d="m646 413-12 4-9 3c-2 0-3 2-3 4l-2 104c0 7 2 8 8 3l17-15c-4-4-6-9-8-15-3-11-3-23-2-34 1-18 3-37 11-54zm-262 49 38-28c-9 3-19 5-29 6-21 2-24-20-28-36l-8-42v90c0 40-3 29 27 10zm171 317c-13-11-4-22 4-33l-32 25c-6 5-18 14-16 24l3 4c1 2 3 2 4 2l49-14c-4-2-9-4-12-8zm5-445c-12-5-24-12-33-22l-1 16 2 3a891 891 0 0 0 53 13c31 5 32 12 32-10-16 9-36 6-53 0zm-83-19c3 1 6-1 6-4l1-10c-9 4-19 6-29 7l22 7zm-31 505-40 7c-12 2-27 5-32-8-3-8-3-19-3-27a895 895 0 0 1-1-93c1-36 2-71 5-106 1-19 7-33 20-47 14-16 31-28 43-44-25 20-51 40-78 56-2 1-3 3-3 5l1 280c0 4 4 7 7 5 31-12 64-21 96-30l-15 2zm261-86c-17 9-37 21-56 27-28 8-24-25-25-43 0-20-2-40 2-60 4-22 21-36 37-50 19-16 38-31 55-49 6-6 15-19 19-31a486 486 0 0 1-121 103l-2 141c0 2 1 4 4 4a86 86 0 0 1 3 1c27 4 22 4 44-11a879 879 0 0 0 40-32zm-60-394 122-44c3-1 10-2 0-5l-18-6-21 16c-15 9-31 15-47 21-13 4-45 19-61 11 0 19 0 14 25 7zm176 505c-7-15-21-25-35-33-7-4-12-9-16-15-6-11-1-22 5-31l26-32c9-10 20-23 25-36-32 34-68 66-105 96-5 4-8 6 1 9a800 800 0 0 1 99 42z"/>
  <path fill="#d3ffeb" d="m607 421-10-1-33-7c8 5 18 7 26 12 15 9 13 30 13 46a1321 1321 0 0 0-1 165c1 28 3 58-13 82l15-10c2-1 3-3 3-5l5-276c0-3-2-6-5-6zm-159-8 20-15c7-5 10-9-2-13-26-8-51-18-75-29l-4-2 16 10c13 7 26 12 38 20 9 5 13 13 10 23l-3 6zm385 280-1 25 3 51 3 39 2 26a29176 29176 0 0 0 1-136c0-8 2-17-8-5zm7-81 1-3 1-221c0-10 1-12-8-3l-48 48 8-3c11-4 22-5 27 5 10 16 9 38 9 56-1 21 0 41 1 61 1 24-2 46-13 68-9 19-23 36-37 52l-2 3c21-20 41-41 61-63z"/>
</svg>
