<svg xmlns="http://www.w3.org/2000/svg" xml:space="preserve" viewBox="0 0 1200 1200">
  <path fill="#FFF" d="M989 687c-7-57-43-88-92-115a523 523 0 0 0-239-63 2013 2013 0 0 0 7-185c1-19-8-57 2-73 18-28 10-63-21-74-38-13-82-14-122-17l-23-1c-8 0-17-8-25-10a163 163 0 0 0-92 0c-7 1-14 4-21 8-10 7-11 7-25 8-24 2-49 4-74 8-15 3-32 5-43 18-15 18-14 55 2 72-1 69 0 139 7 208 4 45 6 106 44 137-2 58 24 113 63 155l28 25c10 8 10 26 10 38 1 27-11 39-27 58-57 70 26 120 85 140 60 19 125 28 188 31 62 4 146 9 196-33 42-36 19-91-13-124-7-7-17-16-20-26-3-12 22-10 31-12 26-5 53-12 78-23 30-13 60-32 75-62a95 95 0 0 0 11-46c0-4 5-10 7-14 3-9 5-18 3-28z"/>
  <path fill="#68182B" d="M233 232c1 9 4 16 13 19-2 78-1 156 8 234 6 37 6 93 44 112-9 71 34 140 89 180 9 18 11 39 11 58 1 20-7 38-22 51-12 13-27 29-25 48 11 78 228 99 293 100 67 1 228-3 156-108-22-25-52-43-33-81 65-8 189-32 190-114l-1-10c4-4 7-9 9-14 5-12 2-25-5-35 2-16-8-32-19-43a445 445 0 0 0-309-95c6-28 5-57 8-85 2-68 6-135 0-202 14-8 15-26 12-39-1-20-142-26-164-27-17-23-111-22-121 5-36 2-72 4-108 11-23 2-27 13-26 35z"/>
  <path fill="#CEFFFF" d="M624 252c4-1 7 2 7 5a2019 2019 0 0 1-5 247c0 3-3 5-6 5-8 0-16-2-19-11-7-18-4-38-4-57l3-48c1-44 18-78-39-89-37-7-77-2-110 15-43 24-30 53-27 93l7 81c3 23 0 51-24 62-5 2-10 4-15 4-3 1-6-2-6-5l-1-13-3-174-1-53v-28c0-3 3-5 6-5l13-1c75-6 151-11 224-28z"/>
  <path fill="#8EDBFF" d="M622 532c0 2-2 4-4 4-50 12-100 30-142 59-6 5-13 11-18 18-1 2-3 3-5 3-34 4-70 1-66-43v-1c0-3 2-7 6-7 11-1 22-6 30-14 25-27 10-73 10-107l-7-73c-2-16 5-29 17-39 33-27 112-38 147-9 10 9 8 22 7 33l-2 26c-2 29-5 58-5 88 0 21 5 44 28 45 4 1 7 4 6 8 0 3 0 6-2 9zm-337 42c-18-34-20-74-24-112 0-3 2-5 4-4 26 6 55 16 63 43 5 16 2 35 14 48 8 9 20 13 32 15l3 3c0 14 0 29 7 40 1 3-1 6-4 6-33-5-70-14-94-38l-1-1z"/>
  <path fill="#CEFFFF" d="M760 897c6 9 14 17 22 25 17 14 28 37 25 59v1c-9 30-58 35-86 39-2 0-3-1-3-3-9-71-88-98-151-98-33-2-87 16-101-26-4-15 5-29 7-43 2-10 2-19 1-29 0-2 2-4 4-3a708 708 0 0 0 273 27c3 0 4 2 4 5-5 15-4 31 5 46z"/>
  <path fill="#CEFFFF" d="M939 762c-38 53-112 65-173 73-129 14-327-1-417-107-27-34-44-77-42-121 0-2 2-4 5-3l29 11a248 248 0 0 0 71 10c13 3 28 2 41 1l-1 5c-10 9-20 20-17 34 8 33 82 51 112 61a925 925 0 0 0 333 29 193 193 0 0 0 62-23c2-1 5 1 5 3 0 9-3 19-8 27z"/>
  <path fill="#E2E2E2" d="M956 702v1c-31 57-161 50-218 45-94-7-190-21-274-65-18-9-27-23-12-38 1-2 4-1 5 0 2 4 4 7 8 10 15 13 35 20 54 26 105 34 307 75 409 28 9-4 18-11 24-18 2-3 5-2 6 1 0 3 0 7-2 10z"/>
  <path fill="#8EDBFF" d="M917 621c84 62-9 95-71 98a917 917 0 0 1-338-52c-3-1-4-4-2-7 19-22 53-28 81-28 88 0 170 48 258 41 27-3 56-18 40-48-7-15-19-26-31-36-10-8 3-1 8 1 19 9 38 19 55 31z"/>
  <path fill="#CEFFFF" d="M711 542c25 3 49 9 73 17 30 10 46 17 62 31 38 29 63 70-5 77-87 5-167-41-253-41-31 0-68 7-88 32-2 3-5 4-8 2-12-5-25-12-29-24l-1-1c-3-24 33-41 50-50 61-32 130-52 199-43z"/>
  <path fill="#67D5E8" d="m640 234-1 1c-11 10-27 9-41 13l-90 13c-90 9-162 21-250-15-4-2-12-4-14-9l-1-8c-1-8 2-6 9-4 101 37 213 14 318 5 20-3 41-5 62-10l6-1c3-1 6 1 6 4l-4 11z"/>
  <path fill="#00EBED" d="M376 192c0-2 0-4 2-5 17-16 66-13 87-8 9 2 24 9 10 17-12 9-93 15-99-4z"/>
  <path fill="#CEFFFF" d="M252 208c37-8 76-9 114-12 12 23 61 18 83 17 15-3 37-5 42-22 47 2 95 5 141 15 24 4-44 11-49 12-69 9-138 16-207 18-33 0-67-4-100-12-6-2-43-12-24-16z"/>
  <path fill="#8EDBFF" d="M666 951c-24-14-51-21-78-24-41-7-119 23-128-38-1-8 0-16 3-24 6-15 8-33 4-49l-2-1c-20-8-40-16-59-27-2-1-4 1-4 3 6 21 8 44 3 65-3 20-20 33-32 48-8 9-15 22-12 35h1c29 67 234 87 302 85 15 0 30 0 45-2 2 0 3-1 3-2-4-30-21-54-46-69zm-17 50c-16-11-11-34 9-33 8 1 15 8 17 15 5 15-14 28-26 18z"/>
  <path fill="#67D5E8" d="M669 991c-6 15-25 5-24-8 1-5 6-9 11-9 8-1 16 9 13 17z"/>
  <path fill="#CEFFFF" d="M376 540c-3-85-5-169-5-254 1-3-2-5-5-5-35-2-70-11-103-23-4-1-8 1-8 5 0 61 0 123 5 184 0 2 2 4 4 5 28 6 60 17 69 46 6 16 2 35 15 48 5 6 13 9 21 11 4 1 7-2 7-5v-12zm-34-182c-3 4-5 7-10 9h-1l-1 31c-1 28-10 34-37 37-21 2-22-55-22-72v-3c-10-20-10-61 19-61 17 1 43 3 53 17v1c6 13 6 29-1 41z"/>
  <path fill="#00EBED" d="m284 403-3-32c5 3 11 2 17 1 0 14 1 29-3 42-2 10-5 13-8 3-2-4-3-9-3-14z"/>
  <path fill="#67D5E8" d="m321 394-4 21c-2 5-9 7-14 8 5-17 5-34 5-52l13-2v25zm12-74c6 10 6 29-3 37-7 3-15 3-23 4 3-5 5-11 6-17 1-8 0-17-2-25-1-5-7-10 1-8 7 2 16 4 21 9z"/>
  <path fill="#00EBED" d="M300 318c6 14 4 40-7 44-16 4-21-23-17-40 3-13 19-16 24-4z"/>
  <path fill="#BEBEBE" d="M953 708c-31 20-67 31-104 34a1220 1220 0 0 1-293-32c-21-5-41-12-61-21-17-7-37-18-47-34l-2-2c-5 12 3 22 18 30 84 44 180 58 274 65 55 5 179 12 215-40z"/>
  <path fill="#65B0B9" d="M337 337c-6 8-17 15-26 16l-4 8c8-1 16-1 23-4 5-4 7-12 7-20zm-79-91c88 36 160 24 250 15l90-13c14-4 30-3 41-13l1-1 2-4-16 5-36 8c-40 8-80 12-121 16-46 5-94 11-140 3-17-3-34-8-50-13-13-4-27-8-36-17l1 5c2 5 10 7 14 9zm387 737c-1 13 18 23 24 8v-5c-2 5-8 7-13 5-5-3-7-9-6-15l-5 7zM317 415l4-20c-4 7-9 13-15 15 0 4-1 9-3 13 5-1 12-3 14-8z"/>
  <path fill="#A6F4FF" d="m252 225-6-1c34 21 79 23 118 27 32 3 64 1 96-2 41-4 81-11 122-16a198 198 0 0 0 56-14l-6 1c-21 5-42 7-62 10-105 9-217 32-318-5z"/>
  <path fill="#73B9D5" d="m285 574 1 1c24 24 61 33 94 38 3 0 5-3 4-6-4-6-6-13-6-21l-7 7c-6 5-15 4-23 2-15-4-31-11-44-20-24-17-32-46-39-74 3 25 8 51 20 73zm102-1c-3 34 18 43 44 44-5-1-9-3-13-6-9-5-16-13-17-23-2-11 11-17 19-22 14-7 24-18 29-33 7-19 6-42 4-61-2-32-10-63-12-95-2-31 1-36 9-50l-7 5a42 42 0 0 0-17 39 3306 3306 0 0 1 7 73c0 34 15 80-10 107-8 8-19 13-30 14-4 0-6 4-6 7v1zm-25 366c29 67 234 87 302 85 15 0 30 0 45-2 2 0 3-1 3-2l-5-21c-5 7-17 10-25 11-20 4-42 4-63 4a419 419 0 0 1-184-36c-19-8-40-17-51-35-17-25 11-48 23-68 11-19 15-41 6-62l-8-12c3 18 4 37 0 55-3 20-20 33-32 48-8 9-15 22-12 35h1zm420-228c-50-1-99-9-148-18-35-7-70-14-105-19a910 910 0 0 0 317 44c59-1 145-31 83-87l8 19c3 10 3 21-2 30s-17 14-27 18c-16 6-34 8-52 10-25 3-49 4-74 3z"/>
  <path fill="#CEFFFF" d="M576 370c0-14-2-29-16-36-13-8-32-7-47-4s-31 9-40 22c-11 17-8 40-5 58 3 22 10 44 14 65 2 11 4 22 4 33 1 23 1 25 21 22l29-5c15-2 31-6 34-23 2-10 0-21 0-31-1-16 1-32 2-47 1-18 4-36 4-54zm11 262c-17 0-35 2-51 8l21-2c29-2 59 3 87 10 51 11 100 25 151 31 21 2 42 3 63 1 12-2 26-6 35-15s7-24 3-35c-6-14-18-24-31-31 8 7 15 16 20 26 16 30-13 45-40 48-88 7-170-41-258-41zM467 816l-2-1c-15-6-31-12-46-20l20 13c9 6 16 12 18 23 1 13-2 25-4 38-3 18-2 35 10 50 8 11 19 17 32 19 15 3 30 1 45-1 20-2 40-3 59 0a162 162 0 0 1 97 41c-8-11-18-20-30-27-24-14-51-21-78-24-41-7-119 23-128-38-1-8 0-16 3-24 6-15 8-33 4-49zM328 501c-6-19-22-29-39-36 12 8 22 19 27 32 6 15 6 32 12 47 7 14 25 22 39 19-9-3-18-7-25-14-12-13-9-32-14-48z"/>
  <path fill="#00AFB3" d="M285 311c7 5 10 14 12 23 1 8-1 23-8 29l4-1c11-4 13-30 7-44-3-7-10-9-15-7zm194-125c-15 9-33 12-51 13-9 0-41 0-51-11l-1 4c6 19 87 13 99 4 7-4 7-7 4-10zM298 372l-7 1c3 7 2 16 3 22 0 10-1 19-3 28 1 1 3-3 4-9 4-13 3-28 3-42z"/>
  <path fill="#88F9F9" d="M465 179c-19-5-60-7-81 4l9-2a300 300 0 0 1 72-2z"/>
  <path fill="#A9CDDD" d="M682 830c-90 0-187-14-266-59a244 244 0 0 1-103-114c7 26 20 50 36 71 90 106 288 121 417 107 58-8 129-19 168-66-70 53-166 62-252 61zM575 618c-27 2-52 13-75 25-9 5-19 3-26-2-8-6-9-15-7-23-4 5-6 11-5 17l1 1c4 12 17 19 29 24 3 2 6 1 8-2 20-25 57-32 88-32 86 0 166 46 253 41 36-3 46-17 41-33l-1 4c-6 13-23 16-36 18-42 7-86-2-127-14-46-13-95-28-143-24zM466 894c14 42 68 24 101 26 63 0 142 27 151 98 0 2 1 3 3 3 27-4 73-9 85-36a91 91 0 0 1-51 19c-7 0-15-1-20-6-10-8-11-22-15-33-8-19-25-33-42-43s-38-15-57-16c-27-2-53 4-79 6-23 0-45-8-52-31-5-17 1-39 11-55l-23-7c-2-1-4 1-4 3 1 10 1 19-1 29-2 14-11 28-7 43zm-17-681c-19 1-58 5-76-9 8 13 40 15 51 15 14 0 29-1 43-5 7-2 20-6 23-14v-6c-6 14-27 16-41 19zM304 437c9-1 20-7 25-15 8-11 7-29 9-42 0-8 5-14 9-21s5-15 4-24c-1-5-3-11-7-15 5 12 4 27-2 38-3 4-5 7-10 9h-1l-1 31c-1 28-10 34-37 37h-1c3 2 7 2 12 2zm304-64c2-24 6-55-19-69-13-8-31-8-47-8-24 0-49 4-72 12l-19 11c33-17 73-22 110-15 57 11 40 45 39 89l-3 48c0 19-3 39 4 57 3 7 9 10 16 11-14-15-17-37-15-58l6-78zM346 527l-6-24c-5-23-20-37-41-47-12-5-24-8-33-18-5-5-7-11-8-17l2 26c0 2 2 4 4 5 28 6 60 17 69 46 6 16 2 35 15 48 5 6 13 9 21 11 4 1 7-2 7-5a1314 1314 0 0 1-1-43c-2 10-4 22-9 31-9 14-18-6-20-13zm36-160a6578 6578 0 0 0 4 187c0 3 3 6 6 5 5 0 10-2 15-4 13-6 20-17 23-31-3 3-5 6-9 8-10 8-17 3-21-8-5-15-5-32-6-48l-7-97c-2-24-3-49-6-73v8l1 53z"/>
  <path fill="#E9FFFB" d="M828 604c-7-16-29-27-44-33a298 298 0 0 0-210-1c-19 6-18 7 1 6 45-4 92 7 135 19 28 8 56 15 84 20 9 2 41 7 34-11zM624 252c-73 17-149 22-224 28l-8 1 19 2h43c35-1 69-6 104-11 16-3 33-8 50-7 28 2 19 35 25 63 0-24 0-47-2-71 0-3-3-6-7-5zm-350 21c15 0 30 5 45 8 13 3 26 6 39 2l5-3c-34-2-68-10-100-22-4-1-8 1-8 5v16c5-4 11-6 19-6zm318 577a694 694 0 0 0 115 9c7-1 13-2 20-1 13 0 16 11 16 22 0 14 9 26 18 36 12 11 26 19 38 31l5 8c-4-13-12-25-22-33-8-8-16-16-22-25-9-15-10-31-5-46 0-3-1-5-4-5l-3 1c-78 6-157 1-234-18a519 519 0 0 0 77 21zm211-89c-86-1-173-10-256-35-30-10-104-28-112-61-3-14 7-25 17-34l1-5a131 131 0 0 1-41-1 248 248 0 0 1-94-18l9 9c9 7 19 10 30 13l38 10c7 1 21 2 25 11 2 5 0 13 1 19 4 18 19 31 34 41 17 11 38 17 58 23a809 809 0 0 0 249 40c37 0 74-1 109-9 19-5 44-12 61-26-16 8-34 13-52 17-25 5-51 7-77 6z"/>
</svg>
