<svg xmlns="http://www.w3.org/2000/svg" viewBox="0 0 682.667 682.667">
  <g transform="matrix(1.33333 0 0 -1.33333 0 682.667)" stroke-width="40" stroke="#fb7474">
    <path d="M0 0v-160" transform="translate(412 180)" stroke-linecap="round"/>
    <path d="M0 0h160" transform="translate(332 100)" stroke-linecap="round"/>
    <path d="M0 0c0 70.692 57.308 128 128 128 70.692 0 128-57.308 128-128 0-70.692-57.308-128-128-128C57.308-128 0-70.692 0 0Z" transform="translate(128 364)" fill="none"/>
    <path d="M0 0h-272c-22.091 0-40 17.909-40 40v37c0 28.683 12.265 56.034 33.813 74.966C-241.704 184.021-175.165 216-76 216" transform="translate(332 20)" fill="none" stroke-linecap="round"/>
  </g>
</svg>