<svg xmlns="http://www.w3.org/2000/svg" viewBox="0 0 512 512" fill="#fff">
  <path d="M454 232c0 4-4 8-8 8H257a8 8 0 0 1 0-16h189c4 0 8 3 8 8zm-197 56h117a8 8 0 0 0 0-16H257a8 8 0 0 0 0 16zm-57-170c2 8 1 15-3 21-5 6-11 9-19 9H81c-7 0-14-3-18-9-5-6-6-13-4-21 7-21 23-38 43-46a41 41 0 1 1 55 0c20 8 36 25 43 46zm-96-77a25 25 0 1 0 51 0 25 25 0 0 0-51 0zm81 82a58 58 0 0 0-110 0v6l6 3h97c3 0 4-1 6-3 1-1 2-4 1-6zm15 177c2 7 1 15-3 21-5 6-11 9-19 9H81c-7 0-14-3-18-9-5-6-6-14-4-21 7-21 23-38 43-46a41 41 0 1 1 55 0c20 8 36 25 43 46zm-96-77a25 25 0 1 0 51 0 25 25 0 0 0-51 0zm81 82c-8-24-30-41-55-41s-48 17-56 41l1 6c1 2 4 3 6 3h97c3 0 4-1 6-3s2-4 1-6zm15 177c2 7 1 15-3 21s-11 9-19 9H81c-7 0-14-3-18-9-5-6-6-14-4-21 7-22 23-38 43-46a41 41 0 1 1 55 0c20 8 36 24 43 46zm-96-77a25 25 0 1 0 51 0 25 25 0 0 0-51 0zm81 82c-8-24-30-41-55-41s-48 17-56 41l1 6 6 3h97c3 0 4-1 6-3 1-2 2-4 1-6zm72-381h117a8 8 0 0 0 0-16H257a8 8 0 0 0 0 16zm0-48h189a8 8 0 0 0 0-16H257a8 8 0 0 0 0 16zm189 348H257a8 8 0 0 0 0 16h189a8 8 0 0 0 0-16zm-72 48H257a8 8 0 0 0 0 16h117a8 8 0 0 0 0-16z"/>
</svg>
