<svg xmlns="http://www.w3.org/2000/svg" viewBox="0 0 512 512" fill="#fff">
  <path d="M53 481h406c29 0 52-23 52-52V166c0-28-23-51-52-51H353V77c0-25-21-46-46-46H202c-25 0-46 21-46 46v38H53c-29 0-52 23-52 51v263c0 29 23 52 52 52zm319-354v342H140V127zm34 0v342h-22V127zm-278 0v342h-22V127zm371 39v263c0 22-18 40-40 40h-41V127h41c22 0 40 18 40 39zM168 77c0-19 15-34 34-34h105c19 0 34 15 34 34v38h-20V77c0-8-6-14-14-14H202c-8 0-14 6-14 14v38h-20V77zm32 0 2-2h105l2 2v38H200zM13 166c0-21 18-39 40-39h41v342H53c-22 0-40-18-40-40z"/>
</svg>
