<svg xmlns="http://www.w3.org/2000/svg" fill-rule="evenodd" clip-rule="evenodd" image-rendering="optimizeQuality" shape-rendering="geometricPrecision" text-rendering="geometricPrecision" viewBox="0 0 2667 2667">
  <circle cx="1333" cy="1333" r="1333" fill="#f10"/>
  <g fill="#fefefe">
    <path d="M1180 1151h306a154 154 0 0 0-306 0zm166 25v525c111-6 202-94 213-204 3-48 1-221 1-282 0-21-18-39-39-39zm114 209c70 0 70 107 0 107s-70-107 0-107z"/>
    <path d="M1434 1015c44 30 74 79 78 136h9c35 0 64 29 64 64v17l58-58c12-12 30 6 18 18l-76 76v89h127c10 0 52 46 66 60 8 8 2 22-9 22-14 0-54-53-62-57h-122v111l112 112c12 12-7 29-18 18l-99-99a252 252 0 0 1-494 0l-98 99c-12 11-30-6-18-18l112-112-1-111H960l-53 53c-12 12-30-6-18-18 14-14 55-60 66-60h126v-89l-76-76c-12-12 6-30 18-18l58 58v-18c0-35 29-63 64-63h10c4-57 34-106 78-136l-32-56c-8-14 14-27 22-12l32 55c49-24 107-24 157 0l32-55c8-14 30-2 22 13zm-620 318a520 520 0 1 0 1040 0 520 520 0 0 0-1040 0z"/>
    <path d="M1107 1214v260c0 119 93 220 213 227v-525h-175c-21 0-38 17-38 38zm99 171c70 0 70 107 0 107s-70-107 0-107z"/>
    <path d="M1206 1411c-37 0-37 55 0 55 36 0 36-55 0-55zm254 0c-36 0-36 55 0 55 37 0 37-55 0-55z"/>
    <path d="M1333 789a545 545 0 1 1 0 1090 545 545 0 0 1 0-1090zm-739 783a93 93 0 0 0-34 128l70 122a92 92 0 0 0 125 33l97-56c88 91 197 154 318 184v110c0 52 42 94 94 94h140c51 0 92-42 92-92v-112c122-30 231-93 319-184l95 55c14 8 30 13 46 13 34 0 65-18 82-47l70-122a92 92 0 0 0-34-125l-96-56a664 664 0 0 0 0-368l95-54a95 95 0 0 0 34-128l-70-122a94 94 0 0 0-126-34l-96 56a677 677 0 0 0-319-184V574c0-52-42-94-93-94h-141c-50 0-92 41-92 92v111a678 678 0 0 0-318 184l-95-55a94 94 0 0 0-128 35l-70 121a90 90 0 0 0-9 70c6 24 21 43 42 56l97 55a676 676 0 0 0 0 368z"/>
  </g>
</svg>
