<svg xmlns="http://www.w3.org/2000/svg" viewBox="0 0 480 480" fill="#fff">
  <path d="M118 146c-3-1-6-4-6-8V8c0-4-4-8-8-8H56c-4 0-8 4-8 8v130c0 4-3 7-6 8-25 6-42 28-42 54v272c0 4 4 8 8 8h144c4 0 8-4 8-8V200c0-26-17-48-42-54zM64 16h32v16H64zm80 360H16V264h128zM16 464v-72h128v72zm128-216H16v-48c0-18 12-34 30-39 11-2 18-12 18-23V48h32v90c0 11 7 21 18 23 18 5 30 21 30 39zm146-69c-12-19-18-41-18-64V8c0-4-4-8-8-8h-48c-4 0-8 4-8 8v107c0 23-6 45-18 64l-1 2c-14 21-21 46-21 72v219c0 4 4 8 8 8h128c4 0 8-4 8-8V253c0-26-7-51-21-72zM224 16h32v16h-32zm72 448H184V253c0-23 6-45 18-64l1-2c14-21 21-46 21-72V48h32v67c0 26 7 51 21 72l1 2c12 19 18 41 18 64zm0 0"/>
  <path d="M240 280a40 40 0 1 0 0 80 40 40 0 0 0 0-80zm0 64a24 24 0 1 1 0-48 24 24 0 0 1 0 48zM434 77l-2-3V8c0-4-4-8-8-8h-48c-4 0-8 4-8 8v66l-2 3c-29 19-46 52-46 86v309c0 4 4 8 8 8h144c4 0 8-4 8-8V163c0-34-17-67-46-86zm-50-61h32v16h-32zm80 448H336V163c0-29 15-56 39-73 6-4 9-10 9-16V48h32v26c0 6 3 12 9 16 24 17 39 44 39 73zm0 0"/>
  <path d="M360 208c-4 0-8 4-8 8v208c0 4 4 8 8 8h80c4 0 8-4 8-8V216c0-4-4-8-8-8zm72 208h-64V224h64zm0 0"/>
</svg>
