<svg xmlns="http://www.w3.org/2000/svg" viewBox="0 0 51.58 15.86">
  <path fill="#c6a84f" d="m28.15,15.85c-1.02-.05-10.69-1.64-10.69-3.62,0-2.14,6.64-2.72,10.25-2.88v1c-1.92.34-4.36.96-4.36,1.83,0,.96,5.72,3.67,4.83,3.67h-.02Zm1.26-5.36v-5.27c0-.63,1.2-1.15,2.66-1.15s2.66.52,2.66,1.15v5.27c0,.63-1.2,1.15-2.66,1.15s-2.66-.52-2.66-1.15h0Zm10.44.49c-1.13-.77-2.44-1.23-3.8-1.33v-.68c1.11.02,2.23.13,3.32.34,2.85.5,2.32,1.93,1.26,1.93-.28,0-.55-.09-.78-.26h0Zm-25.62-.74C3.42,8.89,0,8.22,0,7.93s3.42-.82,14.23-2.31c5.09-.7,7.02,1.59,11.14,1.59h2.33v1.45h-2.33c-3.52,0-5.47,1.71-9.34,1.71-.6,0-1.2-.04-1.79-.11h0Zm35.26-1.04v-2.54c0-.3.47-.55,1.04-.55s1.04.25,1.04.55v2.54c0,.3-.47.55-1.04.55s-1.05-.25-1.05-.55h0Zm-2.7,0v-2.54c0-.3.47-.55,1.04-.55s1.04.25,1.04.55v2.54c0,.3-.47.55-1.04.55s-1.06-.25-1.06-.55h.01Zm-2.7,0v-2.54c0-.3.47-.55,1.04-.55s1.04.25,1.04.55v2.54c0,.3-.47.55-1.04.55s-1.06-.25-1.06-.55h.02Zm-8.02-.56v-1.42c.99-.09,2.1-.14,3.13-.14,2.83,0,3.98.38,3.98.85s-1.16.85-3.98.85c-1.04,0-2.15-.05-3.15-.14h.02Zm0-2.44c1.36-.1,2.67-.56,3.8-1.33,1.43-.97,3.04,1.06-.47,1.67-1.1.2-2.21.32-3.32.34v-.68Zm-18.59-2.58C17.48,1.64,27.15.05,28.17,0s-4.81,2.7-4.81,3.66c0,.88,2.44,1.49,4.36,1.83v1c-3.62-.15-10.26-.73-10.26-2.88h.02Z"/>
</svg>