<svg xmlns="http://www.w3.org/2000/svg" xml:space="preserve" viewBox="0 0 512 512" fill="#fff">
  <path d="M437 120h-60c-21 0-42 9-56 25l-49 65h-32l-49-65a75 75 0 0 0-56-25H75c-41 0-75 34-75 75v120c0 20 13 36 30 42v155h150V280l15 20h122l15-20v232h150V357c17-6 30-22 30-42V195c0-41-34-75-75-75zM213 270h-3l-60-80v292h-30V331H90v151H60V330H45c-8 0-15-7-15-15V195c0-25 20-45 45-45h60c13 0 25 6 34 15l49 65a45 45 0 0 0-5 40zm269 45c0 8-7 15-15 15h-15v152h-30V331h-30v151h-30V190l-60 80h-47a15 15 0 0 1 0-30h32l56-75c9-9 21-15 34-15h60c25 0 45 20 45 45v120z"/>
  <path d="M105 0a60 60 0 1 0 0 120 60 60 0 0 0 0-120zm0 90a30 30 0 1 1 0-60 30 30 0 0 1 0 60zM407 0a60 60 0 1 0 0 120 60 60 0 0 0 0-120zm0 90a30 30 0 1 1 0-60 30 30 0 0 1 0 60z"/>
</svg>
