<svg xmlns="http://www.w3.org/2000/svg" xml:space="preserve" viewBox="0 0 32 32">
  <path fill="#fff" d="m30.156 26.62-2.408-2.407a1.559 1.559 0 0 1-.247-1.892c1.647-2.795 2.39-6.181 1.796-9.766C28.264 6.325 23.125 1.4 16.858.616 7.411-.564-.565 7.411.616 16.858c.784 6.267 5.709 11.406 11.939 12.439 3.585.594 6.97-.15 9.766-1.796a1.559 1.559 0 0 1 1.892.247l2.52 2.52A2.491 2.491 0 0 0 28.5 31c.7 0 1.401-.293 1.902-.878.867-1.013.696-2.559-.246-3.501zM5.633 16.612C4.56 10.12 10.12 4.561 16.611 5.633c3.933.65 7.105 3.823 7.755 7.756 1.074 6.491-4.486 12.05-10.978 10.978-3.932-.65-7.104-3.823-7.755-7.756z"/>
</svg>
