<svg xmlns="http://www.w3.org/2000/svg" version="1.1" xmlns:xlink="http://www.w3.org/1999/xlink" width="512" height="512" x="0" y="0" transform="rotate(180)" viewBox="0 0 512 512" style="enable-background:new 0 0 512 512" xml:space="preserve" class=""><g><path d="M435.659 19.194c-119.225-13.815-240.137-13.815-359.283 0C32.83 23.855 0 60.393 0 104.186v346.015c0 29.211 23.755 52.966 52.966 52.966 25.22 0 46.37-17.724 51.672-41.373 51.611 15.596 102.474 23.568 151.38 23.717 48.867-.149 99.73-8.122 151.344-23.72 5.3 23.65 26.445 41.376 51.673 41.376 29.202 0 52.966-23.755 52.966-52.966V104.186C512 60.41 479.179 23.873 435.659 19.194zM105.931 443.708V122.345c100.255-10.169 198.612-10.161 300.138.009v321.352c-51.282 15.87-101.754 24.006-150.051 24.15-48.338-.145-98.8-8.28-150.087-24.148zm388.414 6.493c0 19.474-15.846 35.31-35.31 35.31-19.474 0-35.31-15.837-35.31-35.31v-335.81a8.823 8.823 0 0 0-7.909-8.775c-54.122-5.703-107.317-8.545-160.344-8.545s-105.887 2.842-159.303 8.545c-4.493.468-7.892 4.255-7.892 8.775v335.561c-.003.117-.004.234-.003.351-.055 19.427-15.877 35.209-35.308 35.209-19.474 0-35.31-15.837-35.31-35.31V104.186c0-34.745 26.05-63.744 60.681-67.452 117.884-13.647 237.436-13.656 355.328 0 .018.009.044.009.071.009 34.551 3.699 60.61 32.697 60.61 67.443v346.015z" fill="#FFF9E6" opacity="1" data-original="#000000"></path></g></svg>