<svg xmlns="http://www.w3.org/2000/svg" version="1.1" xmlns:xlink="http://www.w3.org/1999/xlink" width="512" height="512" x="0" y="0" viewBox="0 0 508.008 508.008" style="enable-background:new 0 0 512 512" xml:space="preserve" class=""><g><path d="M447.483 105.173V15.875H239.121v89.298h89.298v29.766H100.624c-21.932 0-40.449 15.697-44.039 37.31L32.817 314.833c4.185-.733 8.433-1.297 12.824-1.297h416.725c4.391 0 8.639.564 12.824 1.297l-23.768-142.584c-3.59-21.627-22.121-37.31-44.039-37.31h-49.198v-29.766zm-297.66 163.714h-29.766v-29.766h29.766zm0-59.532h-29.766v-29.766h29.766zm59.532 59.532h-29.766v-29.766h29.766zm0-59.532h-29.766v-29.766h29.766zm178.596 59.532h-148.83v-89.298h148.83z" fill="#4f38107b" opacity="1" data-original="#000000" class=""></path><path d="M268.887 209.355h89.298v29.766h-89.298zM463.359 343.302H44.649C19.99 343.302 0 363.292 0 387.951v104.181h508.008V387.951c0-24.659-19.99-44.649-44.649-44.649zM328.419 432.6h-148.83v-44.649h29.766v14.883h89.298v-14.883h29.766z" fill="#4f38107b" opacity="1" data-original="#000000" class=""></path></g></svg>