<svg xmlns="http://www.w3.org/2000/svg" version="1.1" xmlns:xlink="http://www.w3.org/1999/xlink" width="512" height="512" x="0" y="0" viewBox="0 0 511.999 511.999" style="enable-background:new 0 0 512 512" xml:space="preserve" class=""><g><path fill="#46cc8d" d="M501.476 511.999H10.518c-5.423 0-9.819-4.396-9.819-9.819V9.819C.699 4.396 5.095 0 10.518 0h490.958c5.423 0 9.819 4.396 9.819 9.819V502.18c0 5.423-4.396 9.819-9.819 9.819z" opacity="1" data-original="#46cc8d"></path><path fill="#00c27a" d="M511.3 9.822v492.356c0 5.428-4.4 9.819-9.819 9.819H472.18c5.418 0 9.819-4.39 9.819-9.819V9.822c0-5.429-4.4-9.819-9.819-9.819h29.301c5.418.001 9.819 4.391 9.819 9.819z" opacity="1" data-original="#00c27a" class=""></path><g fill="#e8edf2"><path d="M150.624 416.753h20.227c3.46 0 5.456 3.327 5.456 6.92 0 3.06-1.73 6.653-5.456 6.653h-20.227v26.748h37.66c3.46 0 5.456 3.593 5.456 7.717 0 3.594-1.73 7.453-5.456 7.453H140.91c-3.859 0-7.585-1.863-7.585-5.456v-86.364c0-3.593 3.726-5.456 7.585-5.456h47.374c3.726 0 5.456 3.859 5.456 7.452 0 4.125-1.996 7.718-5.456 7.718h-37.66zM233.129 435.915l-19.429 34.2c-.931 1.597-2.661 2.795-4.79 2.795-4.657 0-11.311-3.86-11.311-8.65 0-.932.399-1.996 1.065-3.194l23.022-37.527-22.223-37.393c-.798-1.331-1.197-2.529-1.197-3.727 0-4.657 6.121-8.117 11.045-8.117 2.661 0 4.525 1.464 5.722 3.726l18.098 32.603 18.098-32.603c1.331-2.262 3.061-3.726 5.855-3.726 4.923 0 11.045 3.46 11.045 8.117 0 1.198-.399 2.396-1.198 3.727l-22.223 37.393 23.022 37.527c.665 1.198.931 2.262.931 3.194 0 4.79-6.52 8.65-11.311 8.65-2.129 0-3.859-1.198-4.658-2.795zM278.505 380.29c0-3.726 4.258-5.322 8.65-5.322 4.258 0 8.65 1.597 8.65 5.322v86.497c0 3.593-4.391 5.456-8.65 5.456-4.392 0-8.65-1.863-8.65-5.456zM367.131 374.968c3.726 0 5.456 3.993 5.456 7.718 0 4.125-1.996 7.851-5.456 7.851h-19.428v76.25c0 3.593-4.392 5.456-8.65 5.456-4.391 0-8.65-1.863-8.65-5.456v-76.25h-19.562c-3.46 0-5.456-3.593-5.456-7.851 0-3.726 1.73-7.718 5.456-7.718z" fill="#e8edf2" opacity="1" data-original="#e8edf2"></path><circle cx="304.174" cy="65.41" r="34.026" fill="#e8edf2" opacity="1" data-original="#e8edf2"></circle><path d="m273.667 119.439-71.505 22.473a28.885 28.885 0 0 0-19.243 20.089l-7.127 26.633c-2.655 9.922 4.822 19.662 15.092 19.662h1.523c7.064 0 13.25-4.74 15.086-11.562l7.657-28.44a9.397 9.397 0 0 1 6.493-6.593l19.053-5.444c2.682-.766 5.15 1.74 4.341 4.41L211.61 271.059a9.397 9.397 0 0 1-8.995 6.674h-42.934c-10.786 0-19.529 8.743-19.529 19.529s8.744 19.529 19.529 19.529h54.209a28.886 28.886 0 0 0 27.756-20.888l11.282-39.161c2.409-8.362 13.908-9.241 17.561-1.343l42.887 90.39c4.51 9.753 16.231 13.793 25.793 8.89 9.095-4.664 12.838-15.71 8.451-24.942L289.441 210.09a6.102 6.102 0 0 1-.454-3.906l2.193-10.178c1.82-8.448 13.117-10.168 17.369-2.645l2.111 3.735a28.885 28.885 0 0 0 25.146 14.672h35.225c8.629 0 15.623-6.995 15.623-15.623 0-8.629-6.995-15.623-15.623-15.623h-31.586a9.4 9.4 0 0 1-8.359-5.102l-20.933-40.734a30.68 30.68 0 0 0-36.486-15.247z" fill="#e8edf2" opacity="1" data-original="#e8edf2"></path></g></g></svg>