<svg xmlns="http://www.w3.org/2000/svg" version="1.1" xmlns:xlink="http://www.w3.org/1999/xlink" width="512" height="512" x="0" y="0" viewBox="0 0 512 512" style="enable-background:new 0 0 512 512" xml:space="preserve" class=""><g><path d="M210 284.696V361h90v-30c-16.538 0-30-13.462-30-30v-28.608z" fill="#4f38107b" opacity="1" data-original="#000000" class=""></path><path d="M60 255.253V481h150v-30h-30V260.219l211-43.065V84.74L147.495 34.164A121.322 121.322 0 0 0 120 31C53.833 31 0 84.833 0 151c0 72.495 57.193 101.252 60 104.253zM120 76c41.353 0 75 33.647 75 75s-33.647 75-75 75-75-33.647-75-75 33.647-75 75-75z" fill="#4f38107b" opacity="1" data-original="#000000" class=""></path><circle cx="120" cy="151" r="45" fill="#4f38107b" opacity="1" data-original="#000000" class=""></circle><path d="m421 211.004.015-.004L512 241V61l-90.985 30-.015-.004z" fill="#4f38107b" opacity="1" data-original="#000000" class=""></path></g></svg>