<svg xmlns="http://www.w3.org/2000/svg" version="1.1" xmlns:xlink="http://www.w3.org/1999/xlink" width="512" height="512" x="0" y="0" viewBox="0 0 512 512" style="enable-background:new 0 0 512 512" xml:space="preserve" class=""><g><path d="M280.606 299.627h-48.165c-4.143 0-7.5 3.357-7.5 7.5s3.357 7.5 7.5 7.5h48.165c4.143 0 7.5-3.357 7.5-7.5s-3.357-7.5-7.5-7.5zM280.606 326.851h-48.165c-4.143 0-7.5 3.357-7.5 7.5s3.357 7.5 7.5 7.5h48.165c4.143 0 7.5-3.357 7.5-7.5s-3.357-7.5-7.5-7.5zM280.606 354.075h-48.165c-4.143 0-7.5 3.357-7.5 7.5s3.357 7.5 7.5 7.5h48.165c4.143 0 7.5-3.357 7.5-7.5s-3.357-7.5-7.5-7.5zM280.606 381.298h-48.165c-4.143 0-7.5 3.357-7.5 7.5s3.357 7.5 7.5 7.5h48.165c4.143 0 7.5-3.357 7.5-7.5s-3.357-7.5-7.5-7.5zM371.784 31.413c-6.202 0-11.247 5.045-11.247 11.247v378.516c0 6.201 5.045 11.247 11.247 11.247h89.884c6.202 0 11.247-5.046 11.247-11.247V42.66c0-6.202-5.045-11.247-11.247-11.247zm3.753 185.494c6.692 1.155 11.8 7.002 11.8 14.02s-5.107 12.864-11.8 14.02zm82.378 200.515h-82.378V260.044c14.983-1.239 26.8-13.821 26.8-29.118s-11.816-27.879-26.8-29.118V46.413h82.378z" fill="#5d4639" opacity="1" data-original="#000000" class=""></path><path d="M385.143 307.127c0 4.143 3.357 7.5 7.5 7.5h48.165c4.143 0 7.5-3.357 7.5-7.5s-3.357-7.5-7.5-7.5h-48.165a7.5 7.5 0 0 0-7.5 7.5zM440.808 326.851h-48.165c-4.143 0-7.5 3.357-7.5 7.5s3.357 7.5 7.5 7.5h48.165c4.143 0 7.5-3.357 7.5-7.5s-3.357-7.5-7.5-7.5zM440.808 354.075h-48.165c-4.143 0-7.5 3.357-7.5 7.5s3.357 7.5 7.5 7.5h48.165c4.143 0 7.5-3.357 7.5-7.5s-3.357-7.5-7.5-7.5zM440.808 381.298h-48.165c-4.143 0-7.5 3.357-7.5 7.5s3.357 7.5 7.5 7.5h48.165c4.143 0 7.5-3.357 7.5-7.5s-3.357-7.5-7.5-7.5zM50.333 432.422h89.884c6.202 0 11.247-5.046 11.247-11.247V42.66c0-6.202-5.045-11.247-11.247-11.247H50.333c-6.202 0-11.247 5.045-11.247 11.247v378.516c0 6.2 5.045 11.246 11.247 11.246zm3.753-215.515c6.693 1.154 11.8 7.002 11.8 14.02s-5.106 12.865-11.8 14.02zm0 43.137c14.983-1.239 26.8-13.821 26.8-29.118s-11.816-27.879-26.8-29.118V46.413h82.378v371.01H54.086z" fill="#5d4639" opacity="1" data-original="#000000" class=""></path><path d="M119.357 299.627H71.192c-4.143 0-7.5 3.357-7.5 7.5s3.357 7.5 7.5 7.5h48.165c4.143 0 7.5-3.357 7.5-7.5s-3.357-7.5-7.5-7.5zM119.357 326.851H71.192c-4.143 0-7.5 3.357-7.5 7.5s3.357 7.5 7.5 7.5h48.165c4.143 0 7.5-3.357 7.5-7.5s-3.357-7.5-7.5-7.5zM119.357 354.075H71.192c-4.143 0-7.5 3.357-7.5 7.5s3.357 7.5 7.5 7.5h48.165c4.143 0 7.5-3.357 7.5-7.5s-3.357-7.5-7.5-7.5zM119.357 381.298H71.192c-4.143 0-7.5 3.357-7.5 7.5s3.357 7.5 7.5 7.5h48.165c4.143 0 7.5-3.357 7.5-7.5s-3.357-7.5-7.5-7.5zM211.582 432.422h89.884c6.202 0 11.247-5.046 11.247-11.247V42.66c0-6.202-5.045-11.247-11.247-11.247H273.5c-4.143 0-7.5 3.358-7.5 7.5s3.357 7.5 7.5 7.5h24.213v371.01h-82.378V260.044c14.983-1.239 26.8-13.821 26.8-29.118s-11.816-27.879-26.8-29.118V46.413H238.5c4.143 0 7.5-3.358 7.5-7.5s-3.357-7.5-7.5-7.5h-26.918c-6.202 0-11.247 5.045-11.247 11.247v378.516c0 6.2 5.045 11.246 11.247 11.246zm3.753-215.515c6.693 1.154 11.8 7.002 11.8 14.02s-5.106 12.865-11.8 14.02z" fill="#5d4639" opacity="1" data-original="#000000" class=""></path><path d="M496.827 220.926c4.143 0 7.5-3.357 7.5-7.5V18.838C504.327 8.451 495.876 0 485.488 0H26.512C16.125 0 7.674 8.451 7.674 18.838v474.493c0 10.294 8.375 18.669 18.669 18.669h12.216c10.294 0 18.669-8.375 18.669-18.669v-31.479h174.52v31.479c0 10.294 8.375 18.669 18.669 18.669h12.216c10.294 0 18.669-8.375 18.669-18.669v-31.479h173.473v31.479c0 10.294 8.375 18.669 18.669 18.669h12.216c10.294 0 18.669-8.375 18.669-18.669V248.426c0-4.143-3.357-7.5-7.5-7.5s-7.5 3.357-7.5 7.5v198.427H344.127V15H485.49a3.843 3.843 0 0 1 3.839 3.838v194.588a7.496 7.496 0 0 0 7.498 7.5zm-454.6 272.406a3.673 3.673 0 0 1-3.669 3.669H26.343a3.673 3.673 0 0 1-3.669-3.669v-31.479h19.554v31.479zm125.649-46.479H22.674V18.838A3.842 3.842 0 0 1 26.513 15h141.363zm98.425 46.479a3.673 3.673 0 0 1-3.669 3.669h-12.216a3.673 3.673 0 0 1-3.669-3.669v-31.479h19.554zm62.824-46.479H182.876V15h146.249zm140.648 15h19.554v31.479a3.673 3.673 0 0 1-3.669 3.669h-12.216a3.673 3.673 0 0 1-3.669-3.669z" fill="#5d4639" opacity="1" data-original="#000000" class=""></path></g></svg>