<svg xmlns="http://www.w3.org/2000/svg" version="1.1" xmlns:xlink="http://www.w3.org/1999/xlink" width="512" height="512" x="0" y="0" viewBox="0 0 512 512" style="enable-background:new 0 0 512 512" xml:space="preserve" class=""><g><path d="M471 1H41C18.944 1 1 18.944 1 41v430c0 22.056 17.944 40 40 40h430c22.056 0 40-17.944 40-40V41c0-22.056-17.944-40-40-40zM41 21h430c11.028 0 20 8.972 20 20v180h-40v-60c0-15.753-7.543-30.575-20-39.971V51c0-5.522-4.478-10-10-10h-40c-5.522 0-10 4.478-10 10v70.02c-12.457 9.376-20 24.2-20 39.98v60h-45v-60c0-15.759-7.536-30.598-20-39.992V51c0-5.522-4.478-10-10-10h-40c-5.523 0-10 4.478-10 10v69.999c-12.463 9.376-20 24.217-20 40.001v60h-45v-60c0-15.752-7.544-30.575-20-39.971V51c0-5.522-4.477-10-10-10H91c-5.523 0-10 4.478-10 10v70.02c-12.457 9.376-20 24.2-20 39.98v60H21V41c0-11.028 8.972-20 20-20zm450 250H21v-30h470zM96.008 135.005a10.008 10.008 0 0 0 4.979-8.385c.021-.791.011-49.948.014-65.62h20c.012 70.058-.046 65.592.097 66.672a10.013 10.013 0 0 0 4.88 7.324C135.244 140.38 141 150.344 141 161v20H81v-20c0-10.678 5.75-20.639 15.008-25.995zm174.97-.007C280.244 140.38 286 150.343 286 161v20h-60v-20c0-10.678 5.75-20.639 15.007-25.993a10.001 10.001 0 0 0 4.993-8.656V61h20v65.351a10 10 0 0 0 4.978 8.647zm115.03.007a10.015 10.015 0 0 0 4.894-7.325c.143-1.079.087 3.483.099-66.68h20c.079 68.412-.159 65.364.17 67.149a10.033 10.033 0 0 0 4.806 6.847C425.243 140.38 431 150.344 431 161v20h-60v-20c0-10.678 5.751-20.639 15.008-25.995zm-290 270a10.008 10.008 0 0 0 4.979-8.385c.021-.791.011-49.948.014-65.62h20c.009 22.519-.024 65.429.043 66.207a10.029 10.029 0 0 0 4.934 7.79C135.244 410.38 141 420.344 141 431v20H81v-20c0-10.678 5.75-20.639 15.008-25.995zm145 0a10.007 10.007 0 0 0 4.979-8.385c.021-.791.011-49.948.014-65.62h20c.009 22.428-.024 65.428.043 66.206a10.027 10.027 0 0 0 4.933 7.791C280.243 410.38 286 420.344 286 431v20h-60v-20c0-10.678 5.75-20.639 15.008-25.995zm145 0a10.012 10.012 0 0 0 4.979-8.384c.021-.794.011-49.948.014-65.621h20c.009 22.428-.024 65.428.043 66.206a10.032 10.032 0 0 0 4.933 7.791C425.243 410.38 431 420.344 431 431v20h-60v-20c0-10.678 5.751-20.639 15.008-25.995zM471 491h-20v-60c0-15.753-7.543-30.575-20-39.971V321c0-5.522-4.478-10-10-10h-40c-5.522 0-10 4.478-10 10v70.02c-12.457 9.376-20 24.2-20 39.98v60h-45v-60c0-15.753-7.543-30.575-20-39.971V321c0-5.522-4.478-10-10-10h-40c-5.523 0-10 4.478-10 10v70.02c-12.457 9.376-20 24.2-20 39.98v60h-45v-60c0-15.752-7.544-30.575-20-39.971V321c0-5.522-4.477-10-10-10H91c-5.523 0-10 4.478-10 10v70.02c-12.457 9.376-20 24.2-20 39.98v60H41c-11.028 0-20-8.972-20-20V291h470v180c0 11.028-8.972 20-20 20z" fill="#5d4639" opacity="1" data-original="#000000" class=""></path></g></svg>