<svg xmlns="http://www.w3.org/2000/svg" version="1.1" xmlns:xlink="http://www.w3.org/1999/xlink" width="512" height="512" x="0" y="0" viewBox="0 0 100 100" style="enable-background:new 0 0 512 512" xml:space="preserve" class=""><g><path d="M89 10H11a1 1 0 0 0-1 1v8.769c0 .41.248.76.6.914a3.956 3.956 0 0 0-.6 2.081V39.85a4 4 0 0 0 3.995 3.996h17.087a3.97 3.97 0 0 0 2.995-1.38 3.97 3.97 0 0 0 2.995 1.38h19.081v19.081a3.97 3.97 0 0 0 1.38 2.996 3.97 3.97 0 0 0-1.38 2.995v17.086A4 4 0 0 0 60.15 90h17.086c.765 0 1.474-.227 2.082-.601.154.353.504.6.914.6H89a1 1 0 0 0 1-1V11a1 1 0 0 0-1-1zM31.082 41.846H13.995c-1.1 0-1.995-.895-1.995-1.996V22.764c0-1.1.895-1.995 1.995-1.995h19.082V39.85c0 1.1-.894 1.996-1.995 1.996zm3.995-1.996V20.77h21.077v21.077H37.072c-1.1 0-1.995-.895-1.995-1.996zM79.231 20.77v21.077H58.154V20.769zM58.153 62.927V43.846H79.23v21.077H60.15c-1.101 0-1.997-.895-1.997-1.996zM79.23 86.004c0 1.101-.894 1.996-1.995 1.996H60.15c-1.1 0-1.996-.895-1.996-1.996V68.918c0-1.1.896-1.995 1.996-1.995H79.23zM88 88h-6.769V19.769a1 1 0 0 0-1-1H12V12h76z" fill="#5d4639" opacity="1" data-original="#000000"></path></g></svg>