<svg id="Capa_1" enable-background="new 0 0 512 512" height="512" viewBox="0 0 512 512" width="512" xmlns="http://www.w3.org/2000/svg" fill="#4f38107b"><g><g><path d="m135 163v37h270v-52h-255c-8.284 0-15 6.716-15 15z"/><path d="m360 230h-255c-8.284 0-15 6.716-15 15v37h270z"/><path d="m60 312c-8.284 0-15 6.716-15 15v37h270v-52z"/><path d="m0 431c0 8.284 6.716 15 15 15h255v-52h-255c-8.284 0-15 6.716-15 15z"/><path d="m180 81v37h270v-52h-255c-8.284 0-15 6.716-15 15z"/></g><path d="m497 66h-17v67c0 8.284-6.716 15-15 15h-30v67c0 8.284-6.716 15-15 15h-30v52c0 16.569-13.431 30-30 30h-15v52c0 16.569-13.431 30-30 30h-15v52h197c8.284 0 15-6.716 15-15v-350c0-8.284-6.716-15-15-15z"/></g></svg>