<svg xmlns="http://www.w3.org/2000/svg" version="1.1" xmlns:xlink="http://www.w3.org/1999/xlink" width="512" height="512" x="0" y="0" viewBox="0 0 33.994 33.994" style="enable-background:new 0 0 512 512" xml:space="preserve" class=""><g><path d="M27.125 0H6.867a2.304 2.304 0 0 0-2.305 2.309v29.377a2.306 2.306 0 0 0 2.305 2.308h20.258a2.308 2.308 0 0 0 2.306-2.308V2.309A2.305 2.305 0 0 0 27.125 0zM16.997 33.129a1.37 1.37 0 1 1 0-2.742 1.37 1.37 0 0 1 0 2.742zm10.101-3.943H6.896V2.774h20.202v26.412z" fill="#4f38107b" opacity="1" data-original="#000000" class=""></path></g></svg>