<svg xmlns="http://www.w3.org/2000/svg" version="1.1" xmlns:xlink="http://www.w3.org/1999/xlink" width="512" height="512" x="0" y="0" viewBox="0 50 512 512" style="enable-background:new 0 0 512 512" xml:space="preserve"><g><path d="M106.484 497.5c-38.692.115-75.563-22.73-91.378-60.611-20.923-50.116 2.808-107.862 52.899-128.726" style="stroke-width:15;stroke-linecap:round;stroke-linejoin:round;stroke-miterlimit:10;" fill="none" stroke="#4f38107b" stroke-width="15" stroke-linecap="round" stroke-linejoin="round" stroke-miterlimit="10" data-original="#4f38107b" opacity="1"></path><path d="M68.01 308.16a79.42 79.42 0 0 1 30.38-6.14h.24c31.35 0 61.2 18.54 74.02 49.24a79.632 79.632 0 0 1 6.17 30.72c0 31.32-18.5 61.1-49.16 73.87l-.21.09a61.356 61.356 0 0 1-43.6 1.2l-.14-.05a61.871 61.871 0 0 1-17.06-9.18" style="stroke-width:15;stroke-linecap:round;stroke-linejoin:round;stroke-miterlimit:10;" fill="none" stroke="#4f38107b" stroke-width="15" stroke-linecap="round" stroke-linejoin="round" stroke-miterlimit="10" data-original="#4f38107b" opacity="1"></path><path d="M47.99 419.65c-10.92-30.59 3.94-64.78 34.24-77.41M129.454 455.943c.07-.035.139-.052.209-.087M115.436 421.772c21.915-9.128 32.297-34.392 23.143-56.318-9.153-21.925-34.43-32.337-56.344-23.209M115.436 421.772c-12.523 5.216-26.966-.733-32.197-13.262-5.231-12.529.702-26.965 13.225-32.181M432.159 460.569a61.318 61.318 0 0 0 23.181-4.715h0c40.699-16.952 59.98-63.871 42.981-104.59-12.647-30.294-41.868-48.752-72.761-49.237" style="stroke-width:15;stroke-linecap:round;stroke-linejoin:round;stroke-miterlimit:10;" fill="none" stroke="#4f38107b" stroke-width="15" stroke-linecap="round" stroke-linejoin="round" stroke-miterlimit="10" data-original="#4f38107b" opacity="1"></path><path d="M455.128 455.943c.07-.035.139-.052.209-.087M425.56 302.02H315.45M280.45 302.02H98.39M148.66 497.5h337.38c5.1 0 9.71-2.07 13.05-5.41s5.41-7.95 5.41-13.05c0-10.2-8.27-18.47-18.46-18.47H422.14M387.14 460.57H148.66" style="stroke-width:15;stroke-linecap:round;stroke-linejoin:round;stroke-miterlimit:10;" fill="none" stroke="#4f38107b" stroke-width="15" stroke-linecap="round" stroke-linejoin="round" stroke-miterlimit="10" data-original="#4f38107b" opacity="1"></path><path d="M106.484 460.57h42.176c10.198 0 18.465 8.267 18.465 18.465v0c0 10.198-8.267 18.465-18.465 18.465h-42.176M224.596 459.214c25.422-14.719 42.761-44.085 42.761-77.915 0-33.834-17.342-63.204-42.765-77.918M353.574 303.386c19.398 19.389 31.557 47.141 31.557 77.912 0 30.915-12.279 58.789-31.837 78.191M165.817 302.013c-33.966.101-66.332-19.953-80.215-53.207-18.367-43.994 2.465-94.685 46.437-113.001" style="stroke-width:15;stroke-linecap:round;stroke-linejoin:round;stroke-miterlimit:10;" fill="none" stroke="#4f38107b" stroke-width="15" stroke-linecap="round" stroke-linejoin="round" stroke-miterlimit="10" data-original="#4f38107b" opacity="1"></path><path d="M144.527 165.721c-27.484 11.451-40.5 43.126-29.018 70.625 6.146 14.727 18.086 25.308 32.072 30.194l.12.042a53.848 53.848 0 0 0 38.466-1.127h0c35.727-14.881 52.653-56.069 37.73-91.813s-56.13-52.718-91.857-37.837" style="stroke-width:15;stroke-linecap:round;stroke-linejoin:round;stroke-miterlimit:10;" fill="none" stroke="#4f38107b" stroke-width="15" stroke-linecap="round" stroke-linejoin="round" stroke-miterlimit="10" data-original="#4f38107b" opacity="1"></path><path d="M185.981 265.533c.061-.031.122-.046.183-.076M173.675 235.536c19.238-8.013 28.352-30.191 20.316-49.438s-30.224-28.387-49.462-20.374M173.675 235.536c-10.993 4.579-23.672-.644-28.264-11.642-4.592-10.999.616-23.671 11.609-28.25M356.285 269.594a53.834 53.834 0 0 0 20.349-4.139h0c35.727-14.881 52.653-56.069 37.73-91.813-11.102-26.593-36.753-42.797-63.872-43.222" style="stroke-width:15;stroke-linecap:round;stroke-linejoin:round;stroke-miterlimit:10;" fill="none" stroke="#4f38107b" stroke-width="15" stroke-linecap="round" stroke-linejoin="round" stroke-miterlimit="10" data-original="#4f38107b" opacity="1"></path><path d="M376.449 265.533c.061-.031.122-.046.183-.076M158.709 130.411h191.783M202.841 269.595H403.58c8.952 0 16.209 7.257 16.209 16.209v0c0 8.952-7.257 16.209-16.209 16.209" style="stroke-width:15;stroke-linecap:round;stroke-linejoin:round;stroke-miterlimit:10;" fill="none" stroke="#4f38107b" stroke-width="15" stroke-linecap="round" stroke-linejoin="round" stroke-miterlimit="10" data-original="#4f38107b" opacity="1"></path><path d="M165.899 269.595h36.942c8.952 0 16.209 7.257 16.209 16.209v0c0 8.952-7.257 16.209-16.209 16.209M246.539 268.784c22.678-12.791 38.202-38.786 38.202-68.777 0-30.164-15.702-56.286-38.59-68.994M319.65 268.7c15.42-15.27 25.69-36.53 27.65-60.34M319.38 131.04c11.48 11.27 20.14 25.84 24.68 42.32M251.775 89.885c0-12.563" style="stroke-width:15;stroke-linecap:round;stroke-linejoin:round;stroke-miterlimit:10;" fill="none" stroke="#4f38107b" stroke-width="15" stroke-linecap="round" stroke-linejoin="round" stroke-miterlimit="10" data-original="#4f38107b" opacity="1"></path></g></svg>