<svg xmlns="http://www.w3.org/2000/svg" version="1.1" xmlns:xlink="http://www.w3.org/1999/xlink" width="256" height="512" x="0" y="0" viewBox="0 0 256 512" style="enable-background:new 0 0 256 512" xml:space="preserve" class="">
<g>
<path d="M96.031 148.898c-41.05 0-74.449-33.398-74.449-74.449S54.98 0 96.032 0s74.448 33.398 74.448 74.45-33.398 74.448-74.449 74.448zM96.031 421.75a15.119 15.119 0 0 1-14.117-9.707L1 200.937a15.119 15.119 0 0 1 14.117-20.53h161.824a15.122 15.122 0 0 1 14.118 20.53l-80.91 211.106a15.119 15.119 0 0 1-14.118 9.707zM415.969 148.898c-41.051" fill="#88acd4" opacity="1" data-original="#000000" class="">
</path>
</g>
</svg>